<?xml version="1.0" encoding="UTF-8" standalone="no"?>
<!-- Created with Inkscape (http://www.inkscape.org/) -->

<svg
   width="212.86909mm"
   height="126.90021mm"
   viewBox="0 0 212.86909 126.9002"
   version="1.1"
   id="svg5"
   inkscape:version="1.1.1 (3bf5ae0d25, 2021-09-20)"
   sodipodi:docname="flex.svg"
   xmlns:inkscape="http://www.inkscape.org/namespaces/inkscape"
   xmlns:sodipodi="http://sodipodi.sourceforge.net/DTD/sodipodi-0.dtd"
   xmlns:xlink="http://www.w3.org/1999/xlink"
   xmlns="http://www.w3.org/2000/svg"
   xmlns:svg="http://www.w3.org/2000/svg">
  <sodipodi:namedview
     id="namedview7"
     pagecolor="#ffffff"
     bordercolor="#999999"
     borderopacity="1"
     inkscape:pageshadow="0"
     inkscape:pageopacity="0"
     inkscape:pagecheckerboard="0"
     inkscape:document-units="mm"
     showgrid="false"
     showguides="true"
     inkscape:guide-bbox="true"
     inkscape:snap-center="true"
     inkscape:zoom="0.25"
     inkscape:cx="2918"
     inkscape:cy="142"
     inkscape:window-width="1920"
     inkscape:window-height="1012"
     inkscape:window-x="-8"
     inkscape:window-y="-8"
     inkscape:window-maximized="1"
     inkscape:current-layer="g11880"
     fit-margin-top="0"
     fit-margin-left="0"
     fit-margin-right="0"
     fit-margin-bottom="0"
     inkscape:snap-page="true"
     inkscape:snap-smooth-nodes="true"
     inkscape:object-paths="true" />
  <defs
     id="defs2">
    <inkscape:path-effect
       effect="skeletal"
       id="path-effect1317"
       is_visible="true"
       lpeversion="1"
       pattern="m -146.52375,43.25062 c 0,0 -1.07438,-3.403314 1.24445,-5.00623 0,0 0.50317,3.557271 3.98053,3.742208"
       copytype="repeated"
       prop_scale="1"
       scale_y_rel="false"
       spacing="0"
       normal_offset="-2"
       tang_offset="0"
       prop_units="false"
       vertical_pattern="false"
       hide_knot="false"
       fuse_tolerance="0" />
    <linearGradient
       inkscape:collect="always"
       id="linearGradient8215">
      <stop
         style="stop-color:#ffffff;stop-opacity:1"
         offset="0"
         id="stop8213" />
      <stop
         style="stop-color:#202020;stop-opacity:1"
         offset="1"
         id="stop8211" />
    </linearGradient>
    <linearGradient
       inkscape:collect="always"
       id="linearGradient6194">
      <stop
         style="stop-color:#666666;stop-opacity:1;"
         offset="0"
         id="stop6190" />
      <stop
         style="stop-color:#cacaca;stop-opacity:1"
         offset="1"
         id="stop6192" />
    </linearGradient>
    <inkscape:path-effect
       effect="skeletal"
       id="path-effect3273"
       is_visible="true"
       lpeversion="1"
       pattern="m 6.4135568,78.085863 c 0.8211146,-2.934374 2.8937692,-4.572308 6.2853022,-4.844047 -0.955018,2.155507 -2.075088,4.278402 1.509221,7.33074"
       copytype="repeated_stretched"
       prop_scale="1"
       scale_y_rel="false"
       spacing="0"
       normal_offset="0"
       tang_offset="0"
       prop_units="false"
       vertical_pattern="false"
       hide_knot="false"
       fuse_tolerance="5.3" />
    <inkscape:path-effect
       effect="skeletal"
       id="path-effect2076"
       is_visible="true"
       lpeversion="1"
       pattern="m 6.4135568,78.085863 c 0.8211146,-2.934374 2.8937692,-4.572308 6.2853022,-4.844047 -0.955018,2.155507 -2.075088,4.278402 1.509221,7.33074"
       copytype="repeated"
       prop_scale="0.08"
       scale_y_rel="false"
       spacing="0"
       normal_offset="0"
       tang_offset="0"
       prop_units="false"
       vertical_pattern="false"
       hide_knot="false"
       fuse_tolerance="0" />
    <inkscape:path-effect
       effect="bspline"
       id="path-effect957"
       is_visible="true"
       lpeversion="1"
       weight="33.333333"
       steps="2"
       helper_size="0"
       apply_no_weight="true"
       apply_with_weight="true"
       only_selected="false" />
    <inkscape:path-effect
       effect="join_type"
       id="path-effect913"
       is_visible="true"
       lpeversion="1"
       linecap_type="butt"
       line_width="10"
       linejoin_type="bevel"
       miter_limit="100"
       attempt_force_join="true" />
    <inkscape:path-effect
       effect="bspline"
       id="path-effect531"
       is_visible="true"
       lpeversion="1"
       weight="34.3333"
       steps="7"
       helper_size="16"
       apply_no_weight="true"
       apply_with_weight="true"
       only_selected="true" />
    <inkscape:path-effect
       effect="join_type"
       id="path-effect487"
       is_visible="true"
       lpeversion="1"
       linecap_type="butt"
       line_width="2.97"
       linejoin_type="bevel"
       miter_limit="100"
       attempt_force_join="true" />
    <inkscape:path-effect
       effect="join_type"
       id="path-effect481"
       is_visible="true"
       lpeversion="1"
       linecap_type="butt"
       line_width="1.87"
       linejoin_type="extrp_arc"
       miter_limit="100"
       attempt_force_join="true" />
    <inkscape:path-effect
       effect="fill_between_many"
       method="bsplinespiro"
       linkedpaths="#path261,0,1"
       id="path-effect483"
       join="true"
       close="true"
       autoreverse="true"
       is_visible="true"
       lpeversion="0"
       applied="false" />
    <inkscape:path-effect
       effect="fill_between_many"
       method="bsplinespiro"
       linkedpaths="#path261,0,1"
       id="path-effect489"
       is_visible="true"
       lpeversion="0"
       join="true"
       close="true"
       autoreverse="true"
       applied="false" />
    <inkscape:path-effect
       effect="fill_between_many"
       method="bsplinespiro"
       linkedpaths="#path261,0,1"
       id="path-effect915"
       join="true"
       close="true"
       autoreverse="true"
       is_visible="true"
       lpeversion="0"
       applied="false" />
    <filter
       inkscape:collect="always"
       style="color-interpolation-filters:sRGB"
       id="filter4510"
       x="-0.059338252"
       y="-0.059337699"
       width="1.1186765"
       height="1.1186754">
      <feGaussianBlur
         inkscape:collect="always"
         stdDeviation="0.17083771"
         id="feGaussianBlur4512" />
    </filter>
    <filter
       inkscape:collect="always"
       style="color-interpolation-filters:sRGB"
       id="filter4654"
       x="-0.079185806"
       y="-0.079185106"
       width="1.1583716"
       height="1.1583702">
      <feGaussianBlur
         inkscape:collect="always"
         stdDeviation="3.2940999"
         id="feGaussianBlur4656" />
    </filter>
    <radialGradient
       inkscape:collect="always"
       xlink:href="#linearGradient6194"
       id="radialGradient6196"
       cx="141.32831"
       cy="115.72768"
       fx="141.32831"
       fy="115.72768"
       r="25.613762"
       gradientTransform="matrix(1.9111304,-0.0894459,0.03363607,0.7186793,-132.66114,45.197825)"
       gradientUnits="userSpaceOnUse" />
    <radialGradient
       inkscape:collect="always"
       xlink:href="#linearGradient6194"
       id="radialGradient7413"
       cx="141.32831"
       cy="115.72768"
       fx="141.32831"
       fy="115.72768"
       r="14.052795"
       gradientTransform="matrix(2.3615299,-0.0396018,0.01201122,0.71625145,-193.81275,38.434417)"
       gradientUnits="userSpaceOnUse" />
    <radialGradient
       inkscape:collect="always"
       xlink:href="#linearGradient8215"
       id="radialGradient7923"
       cx="141.32831"
       cy="115.72768"
       fx="141.32831"
       fy="115.72768"
       r="6.8748899"
       gradientTransform="matrix(0.49753829,-0.79617406,1.7921091,1.1199099,-136.38456,98.645044)"
       gradientUnits="userSpaceOnUse" />
  </defs>
  <g
     inkscape:label="Ebene 1"
     id="layer1"
     transform="translate(-32.477489,-42.540618)"
     inkscape:groupmode="layer">
    <g
       id="g11880"
       inkscape:label="saw"
       transform="translate(0.86490192,-10.458295)">
      <path
         id="path325"
         style="opacity:1;fill:#a1a1a1;fill-rule:evenodd;stroke:#535353;stroke-width:0.068;stroke-linecap:round;stroke-linejoin:round;stroke-miterlimit:4;stroke-dasharray:none"
         d="m 143.70529,53.033072 c -1.40972,0.796153 -1.77094,2.163291 -1.80744,3.302063 -0.01,0.311884 0.005,0.600293 0.0303,0.8656 a 58.534831,58.534831 0 0 0 -0.59985,-0.0078 58.534831,58.534831 0 0 0 -0.0179,5.61e-4 l 0.57799,-0.167065 c -0.19788,-0.01288 -0.38715,-0.03414 -0.56846,-0.06335 -3.27435,-0.516038 -4.10376,-3.817834 -4.10376,-3.817834 -1.62819,1.215876 -1.55298,3.109009 -1.2855,4.326879 a 58.534831,58.534831 0 0 0 -0.5595,0.06279 l 0.51801,-0.21696 c -3.73055,0.20325 -5.04559,-3.304305 -5.04559,-3.304305 -1.42669,1.340058 -1.19779,3.141139 -0.81682,4.320712 a 58.534831,58.534831 0 0 0 -0.171,0.03251 l 0.14633,-0.08129 c -3.67412,0.615897 -5.35899,-2.73191 -5.35899,-2.73191 -1.20486,1.407267 -0.88516,3.066748 -0.41766,4.199618 a 58.534831,58.534831 0 0 0 -0.88915,0.298811 c -3.00151,0.280202 -4.68007,-2.327141 -4.68007,-2.327141 -1.00888,1.463527 -0.59821,3.018911 -0.0488,4.097024 a 58.534831,58.534831 0 0 0 -1.36623,0.596502 c -2.63175,0.190311 -4.31679,-1.932463 -4.31679,-1.932463 -0.8189,1.489091 -0.33958,2.930411 0.27526,3.946777 a 58.534831,58.534831 0 0 0 -1.66112,0.930632 c -2.37399,0.173767 -4.04881,-1.56918 -4.04881,-1.56918 -0.64272,1.498401 -0.10382,2.839259 0.56735,3.789243 a 58.534831,58.534831 0 0 0 -1.67346,1.23505 c -2.25585,0.282875 -3.9905,-1.209822 -3.9905,-1.209822 -0.49065,1.531871 0.14619,2.804709 0.89027,3.68777 a 58.534831,58.534831 0 0 0 -1.70766,1.46939 c -2.137564,0.38066 -3.899121,-0.877934 -3.899121,-0.877934 -0.341376,1.554667 0.390933,2.755137 1.203088,3.565555 a 58.534831,58.534831 0 0 0 -1.460419,1.622439 c -2.122793,0.625988 -4.037591,-0.485498 -4.037591,-0.485498 -0.197999,1.604863 0.672351,2.740584 1.570862,3.47025 a 58.534831,58.534831 0 0 0 -1.230567,1.666728 c -2.090916,0.902641 -4.172145,-0.05382 -4.172145,-0.05382 -0.04801,1.667839 0.98951,2.728655 1.980676,3.362608 a 58.534831,58.534831 0 0 0 -1.00071,1.624683 c -2.033612,1.227789 -4.307258,0.436163 -4.307258,0.436163 0.114643,1.714202 1.314958,2.675462 2.386007,3.198908 a 58.534831,58.534831 0 0 0 -0.611079,1.392584 c -1.946686,1.750946 -4.556172,1.130214 -4.556172,1.130214 0.298124,1.792476 1.723166,2.624185 2.878792,3.009419 a 58.534831,58.534831 0 0 0 -0.345905,0.988377 c -1.733405,2.368108 -4.726041,1.98068 -4.726041,1.98068 0.499777,1.83364 2.118763,2.49058 3.328974,2.72573 a 58.534831,58.534831 0 0 0 -0.103161,0.38404 c -1.31432,3.14845 -4.789392,3.08398 -4.789392,3.08398 0.712761,1.83116 2.483822,2.28393 3.72309,2.3647 a 58.534831,58.534831 0 0 0 -0.03251,0.28816 l -0.03701,-0.28537 c -0.793842,3.64556 -4.546642,3.99948 -4.546642,3.99948 0.942674,1.80914 2.843574,2.01429 4.093098,1.93079 a 58.534831,58.534831 0 0 0 -0.02354,0.62789 l -0.15249,-0.60826 c -0.100502,0.99866 -0.414784,1.77168 -0.837569,2.38487 -1.173708,1.71765 -3.221894,2.15279 -3.221894,2.15279 1.157947,1.66854 3.047943,1.66632 4.277547,1.4436 a 58.534831,58.534831 0 0 0 0.01682,0.45522 L 82.7837,119.32328 c 0.07409,3.74197 -3.478098,4.93908 -3.478098,4.93908 1.291211,1.47073 3.096084,1.30571 4.288758,0.96539 a 58.534831,58.534831 0 0 0 0.03083,0.16258 l -0.07288,-0.14184 c 0.493768,3.6942 -2.904582,5.27041 -2.904582,5.27041 1.386806,1.26737 3.081857,0.97707 4.229892,0.53595 a 58.534831,58.534831 0 0 0 0.218643,0.81571 c 0.251469,3.07293 -2.463372,4.70418 -2.463372,4.70418 1.427097,1.0508 2.988566,0.69399 4.081887,0.18052 a 58.534831,58.534831 0 0 0 0.562865,1.36118 c 0.12049,2.64472 -2.058042,4.27138 -2.058042,4.27138 1.464943,0.86396 2.920558,0.42659 3.954065,-0.15865 a 58.534831,58.534831 0 0 0 0.877373,1.66 c 0.120068,2.39225 -1.683549,4.02751 -1.683549,4.02751 1.483922,0.68845 2.84275,0.18206 3.811669,-0.46476 a 58.534831,58.534831 0 0 0 1.183473,1.78895 c 0.178303,2.22492 -1.329234,3.87894 -1.329234,3.87894 1.488773,0.52419 2.760175,-0.0443 3.660866,-0.74507 a 58.534831,58.534831 0 0 0 1.468823,1.70653 c 0.321089,2.14784 -0.986685,3.87446 -0.986685,3.87446 1.530444,0.38166 2.743913,-0.30044 3.576204,-1.08087 a 58.534831,58.534831 0 0 0 1.646534,1.64653 c 0.46757,2.07199 -0.64359,3.86101 -0.64359,3.86101 1.56389,0.23792 2.71039,-0.55903 3.46633,-1.41557 a 58.534831,58.534831 0 0 0 1.734,1.35446 c 0.74913,2.06848 -0.22761,4.03704 -0.22761,4.03704 1.61948,0.0929 2.69601,-0.85614 3.36373,-1.80296 a 58.534831,58.534831 0 0 0 1.70709,1.07247 c 1.08156,2.0398 0.25396,4.21475 0.25396,4.21475 1.68974,-0.0638 2.68147,-1.19917 3.24208,-2.24136 a 58.534831,58.534831 0 0 0 1.60954,0.85046 c 1.43679,1.95838 0.78487,4.34146 0.78487,4.34146 1.73661,-0.23569 2.61353,-1.54629 3.05147,-2.66519 a 58.534831,58.534831 0 0 0 1.28326,0.46643 c 2.02018,1.81809 1.5703,4.57356 1.5703,4.57356 1.80131,-0.43152 2.51968,-1.9599 2.80872,-3.15014 a 58.534831,58.534831 0 0 0 0.7731,0.20743 c 2.7207,1.51029 2.55138,4.70081 2.55138,4.70081 1.82286,-0.64283 2.34492,-2.35096 2.47739,-3.58181 a 58.534831,58.534831 0 0 0 0.0426,0.008 l -0.0342,0.003 c 3.61273,0.91457 3.83297,4.67053 3.83297,4.67053 1.78506,-0.85561 2.09328,-2.67352 2.07262,-3.92099 a 58.534831,58.534831 0 0 0 0.33356,0.0124 l -0.32516,0.0695 c 2.72756,0.37113 3.7918,2.37822 4.1929,3.53865 0.14432,0.41531 0.19004,0.69684 0.19004,0.69684 1.70912,-1.09944 1.77965,-2.98621 1.60227,-4.22652 a 58.534831,58.534831 0 0 0 0.47092,-0.0179 l -0.44457,0.15137 c 3.75078,0.0572 4.82751,3.65133 4.82751,3.65133 1.51809,-1.24408 1.41396,-3.0575 1.1134,-4.26241 a 58.534831,58.534831 0 0 0 0.15304,-0.0168 l -0.13342,0.0628 c 3.71162,-0.36952 5.17622,3.07725 5.17622,3.07725 1.31143,-1.34391 1.07884,-3.04516 0.67611,-4.20691 a 58.534831,58.534831 0 0 0 0.72992,-0.19565 c 3.1408,-0.21377 4.71483,2.60689 4.71483,2.60689 1.11145,-1.41396 0.77752,-3.0084 0.28649,-4.1189 a 58.534831,58.534831 0 0 0 1.35557,-0.47428 c 2.67242,-0.065 4.24896,2.18363 4.24896,2.18363 0.90955,-1.44049 0.51186,-2.91011 -0.0437,-3.96023 a 58.534831,58.534831 0 0 0 1.63982,-0.82244 c 2.42089,-0.0763 4.02246,1.80015 4.02246,1.80015 0.73387,-1.46718 0.26187,-2.84355 -0.35935,-3.83072 a 58.534831,58.534831 0 0 0 1.77828,-1.11732 c 2.25344,-0.14011 3.88736,1.43407 3.88736,1.43407 0.57255,-1.48833 0.0229,-2.7858 -0.66209,-3.70739 a 58.534831,58.534831 0 0 0 1.8052,-1.39708 c 2.13831,-0.24097 3.80774,1.10107 3.80774,1.10107 0.41923,-1.49914 -0.20731,-2.71717 -0.95137,-3.56948 a 58.534831,58.534831 0 0 0 1.62972,-1.62973 c 2.09953,-0.42887 3.87615,0.74732 3.87615,0.74732 0.28126,-1.55316 -0.47942,-2.72009 -1.31243,-3.49997 a 58.534831,58.534831 0 0 0 1.49462,-1.73737 c 2.0527,-0.62825 3.93445,0.37898 3.93445,0.37898 0.13742,-1.60055 -0.76177,-2.69961 -1.68019,-3.39569 a 58.534831,58.534831 0 0 0 1.16834,-1.73232 c 2.04809,-0.96538 4.14861,-0.0954 4.14861,-0.0954 -0.0148,-1.66312 -1.08496,-2.68145 -2.09618,-3.27739 a 58.534831,58.534831 0 0 0 0.8572,-1.62188 c 1.99895,-1.36888 4.3549,-0.64696 4.3549,-0.64696 -0.18357,-1.73731 -1.45943,-2.65363 -2.5626,-3.12715 a 58.534831,58.534831 0 0 0 0.60043,-1.37744 c 1.87517,-1.83823 4.51525,-1.3242 4.51525,-1.3242 -0.36971,-1.78248 -1.83108,-2.55429 -3.00214,-2.89056 a 58.534831,58.534831 0 0 0 0.28649,-0.96091 c 1.62842,-2.47718 4.66437,-2.21725 4.66437,-2.21725 -0.4846,-1.52727 -1.72768,-2.16564 -2.81992,-2.44376 -0.2269,-0.0578 -0.44489,-0.0975 -0.65257,-0.12894 a 58.534831,58.534831 0 0 0 0.0258,-0.13847 c 1.07993,-3.46302 4.74959,-3.55603 4.74959,-3.55603 -0.64686,-1.47233 -1.95817,-1.97086 -3.07837,-2.12587 -0.27976,-0.0387 -0.54864,-0.0565 -0.79441,-0.0616 a 58.534831,58.534831 0 0 0 0.0455,-0.40364 l 0.0678,0.38402 c 0.6317,-3.68538 4.37509,-4.217 4.37509,-4.217 -0.81181,-1.4025 -2.18415,-1.74893 -3.32448,-1.77268 -0.29211,-0.007 -0.56783,0.009 -0.81963,0.0336 a 58.534831,58.534831 0 0 0 0,-5.7e-4 58.534831,58.534831 0 0 0 -0.0274,-1.70653 l 0.13791,0.41991 c 0.0985,-3.75302 3.70515,-4.79163 3.70515,-4.79163 -1.2336,-1.53851 -3.05894,-1.44654 -4.26746,-1.156 a 58.534831,58.534831 0 0 0 -0.0246,-0.208 l 0.0852,0.18501 c -0.33029,-3.71654 3.13164,-5.14595 3.13164,-5.14595 -1.34267,-1.33749 -3.06512,-1.10664 -4.23158,-0.70919 a 58.534831,58.534831 0 0 0 -0.15585,-0.66097 c -0.23801,-3.199167 2.6523,-4.770327 2.6523,-4.770327 -1.40976,-1.130929 -3.01603,-0.803542 -4.13178,-0.319554 a 58.534831,58.534831 0 0 0 -0.4457,-1.259157 c -0.10458,-2.740017 2.22343,-4.33529 2.22343,-4.33529 -1.44885,-0.934311 -2.94095,-0.530774 -3.99835,0.02522 a 58.534831,58.534831 0 0 0 -0.76749,-1.610664 c -0.0849,-2.452907 1.83547,-4.061145 1.83547,-4.061145 -1.47261,-0.753666 -2.86338,-0.280184 -3.85764,0.339735 a 58.534831,58.534831 0 0 0 -1.07247,-1.749699 c -0.14828,-2.282127 1.4649,-3.927157 1.4649,-3.927157 -1.49189,-0.589404 -2.80018,-0.04113 -3.72869,0.641352 a 58.534831,58.534831 0 0 0 -1.3539,-1.761474 c -0.25814,-2.172693 1.12293,-3.866048 1.12293,-3.866048 -1.51722,-0.438822 -2.75559,0.2006 -3.61601,0.951376 a 58.534831,58.534831 0 0 0 -1.57087,-1.653835 c -0.42298,-2.112833 0.7759,-3.891276 0.7759,-3.891276 -1.55485,-0.295743 -2.73066,0.459451 -3.5179,1.288309 a 58.534831,58.534831 0 0 0 -1.69364,-1.449241 c -0.65283,-2.084521 0.38964,-3.998914 0.38964,-3.998914 -1.60738,-0.152344 -2.71659,0.746825 -3.42036,1.663925 a 58.534831,58.534831 0 0 0 -1.70485,-1.18123 c -0.95942,-2.062258 -0.065,-4.166542 -0.065,-4.166542 -1.67122,-2.35e-4 -2.70137,1.070876 -3.30542,2.081028 a 58.534831,58.534831 0 0 0 -1.60955,-0.892509 c -1.34515,-2.010506 -0.60323,-4.355471 -0.60323,-4.355471 -1.73721,0.167408 -2.66457,1.432599 -3.14901,2.530647 a 58.534831,58.534831 0 0 0 -1.33877,-0.573516 c -1.86367,-1.895206 -1.31577,-4.565144 -1.31577,-4.565144 -1.79747,0.355038 -2.58156,1.825563 -2.9259,2.997084 a 58.534831,58.534831 0 0 0 -0.90203,-0.285356 c -2.51502,-1.644927 -2.2195,-4.719315 -2.2195,-4.719315 -1.53168,0.469444 -2.18305,1.706056 -2.47235,2.795261 -0.0606,0.228163 -0.10317,0.447641 -0.13679,0.656488 a 58.534831,58.534831 0 0 0 -0.12109,-0.0269 c -3.46748,-1.108764 -3.52015,-4.789952 -3.52015,-4.789952 -1.47815,0.631438 -1.9903,1.936368 -2.15726,3.054267 -0.0419,0.280571 -0.063,0.550079 -0.0706,0.796644 a 58.534831,58.534831 0 0 0 -0.42103,-0.04934 l 0.4031,-0.06672 c -3.67623,-0.670656 -4.16542,-4.417139 -4.16542,-4.417139 z" />
      <path
         id="path4075"
         style="opacity:1;fill:#a1a1a1;fill-rule:evenodd;stroke:#535353;stroke-width:1.07707;stroke-linecap:round;stroke-linejoin:round;filter:url(#filter4654)"
         d="m 194.64831,115.72745 a 53.32,53.320473 0 0 1 -53.32,53.32047 53.32,53.320473 0 0 1 -53.320002,-53.32047 53.32,53.320473 0 0 1 53.320002,-53.320475 53.32,53.320473 0 0 1 53.32,53.320475 z" />
      <ellipse
         style="opacity:0.510086;fill:url(#radialGradient6196);fill-opacity:1;fill-rule:evenodd;stroke:#535353;stroke-width:0.117;stroke-linecap:round;stroke-linejoin:round;stroke-miterlimit:4;stroke-dasharray:none;stroke-opacity:1"
         id="circle4286"
         cx="141.32831"
         cy="115.72768"
         rx="25.613762"
         ry="25.614" />
      <ellipse
         style="opacity:0.510086;fill:#585858;fill-opacity:1;fill-rule:evenodd;stroke:#535353;stroke-width:0.388552;stroke-linecap:round;stroke-linejoin:round;stroke-miterlimit:4;stroke-dasharray:none;stroke-opacity:1"
         id="ellipse4396"
         cx="141.32831"
         cy="115.72768"
         rx="19.235239"
         ry="19.235418" />
      <ellipse
         style="opacity:0.510086;fill:url(#radialGradient7413);fill-opacity:1;fill-rule:evenodd;stroke:#535353;stroke-width:0.283866;stroke-linecap:round;stroke-linejoin:round;stroke-miterlimit:4;stroke-dasharray:none;stroke-opacity:1"
         id="ellipse4416"
         cx="141.32831"
         cy="115.72768"
         rx="14.052795"
         ry="14.052926" />
      <ellipse
         style="opacity:0.510086;fill:url(#radialGradient7923);fill-opacity:1;fill-rule:evenodd;stroke:#535353;stroke-width:0.623;stroke-linecap:round;stroke-linejoin:round;stroke-miterlimit:4;stroke-dasharray:none;stroke-opacity:1;filter:url(#filter4510)"
         id="ellipse4454"
         cx="141.32831"
         cy="115.72768"
         rx="6.0796409"
         ry="6.0796976" />
      <path
         sodipodi:type="star"
         style="opacity:0.510086;fill:#343434;fill-opacity:1;fill-rule:evenodd;stroke:none;stroke-width:2.35465;stroke-linecap:round;stroke-linejoin:round;stroke-miterlimit:4;stroke-dasharray:none;stroke-opacity:1"
         id="path4536"
         inkscape:flatsided="false"
         sodipodi:sides="6"
         sodipodi:cx="281.75998"
         sodipodi:cy="198.88939"
         sodipodi:r1="18.24025"
         sodipodi:r2="30.915676"
         sodipodi:arg1="0.81986726"
         sodipodi:arg2="1.343466"
         inkscape:rounded="0"
         inkscape:randomized="0"
         d="m 294.20563,212.22402 -5.47796,16.78563 -12.29299,-12.67469 -17.27577,3.64876 4.83011,-16.98339 -11.7978,-13.13687 17.1231,-4.3087 5.47797,-16.78563 12.29299,12.67469 17.27577,-3.64876 -4.83011,16.98339 11.7978,13.13687 z"
         transform="matrix(0.08376732,0,0,0.08376732,117.72603,99.067245)"
         inkscape:transform-center-x="0.37803493"
         inkscape:transform-center-y="-0.29183295" />
    </g>
    <g
       id="g211"
       transform="rotate(-4.8771787,81.807774,42.371877)"
       style="fill:#f4f4e4;fill-opacity:1"
       inkscape:label="Sprinkles">
      <g
         id="g5316"
         inkscape:label="sprinkles5"
         transform="matrix(3.6485302,0.22730718,-0.22730718,3.6485302,877.17003,13.392334)"
         style="display:inline;fill:#f4f4e4;fill-opacity:1">
        <path
           id="path208"
           style="vector-effect:non-scaling-stroke;fill:#f4f4e4;fill-opacity:1;fill-rule:evenodd;stroke-width:0.000858993;stroke-linecap:round;stroke-linejoin:round;-inkscape-stroke:hairline"
           d="m -227.52621,37.704207 -0.61163,0.261272 0.49992,-0.438665 -0.43748,-0.500951 0.57167,0.339897 0.34125,-0.570877 -0.14661,0.648733 0.64839,0.148129 -0.66229,0.06104 0.0595,0.662426 z"
           inkscape:label="sprinkles5_5" />
        <path
           style="fill:#f4f4e4;fill-opacity:1;fill-rule:evenodd;stroke:none;stroke-width:0.1;stroke-linecap:round;stroke-linejoin:round"
           d="m -226.1169,37.927913 c 0.0428,-0.108787 0.2945,-0.108768 0.40355,-0.06435 0.27172,0.110657 0.49752,0.276598 0.76625,0.394029 0.10781,0.04717 0.29546,0.161182 0.24765,0.267806 -0.0472,0.106073 -0.24533,0.0542 -0.35083,0.0081 -0.26537,-0.115947 -0.55311,-0.171158 -0.82171,-0.280613 -0.10678,-0.04346 -0.28772,-0.217167 -0.24495,-0.324949 1e-5,-1e-5 3e-5,-2e-5 4e-5,-3e-5 z"
           id="path779"
           sodipodi:nodetypes="sccccccss"
           inkscape:label="sprinkles5_4" />
        <path
           style="fill:#f4f4e4;fill-opacity:1;fill-rule:evenodd;stroke:none;stroke-width:0.088858;stroke-linecap:round;stroke-linejoin:round"
           d="m -223.94716,38.763081 c 0.0444,-0.09405 0.27504,-0.02722 0.36918,0.01894 0.23434,0.114898 0.45943,0.181667 0.68973,0.303649 0.0925,0.04905 0.20785,0.205647 0.15822,0.296764 -0.049,0.09054 -0.23742,0.0337 -0.32748,-0.01397 -0.22678,-0.120027 -0.46119,-0.189543 -0.69222,-0.302738 -0.0917,-0.04488 -0.24171,-0.209668 -0.19747,-0.30263 1e-5,-8e-6 3e-5,-1.6e-5 4e-5,-2.4e-5 z"
           id="path777"
           sodipodi:nodetypes="csccscccc"
           inkscape:label="sprinkles5_3" />
        <path
           style="fill:#f4f4e4;fill-opacity:1;fill-rule:evenodd;stroke:none;stroke-width:0.1;stroke-linecap:round;stroke-linejoin:round"
           d="m -221.99713,39.672894 c 0.0458,-0.223349 0.33404,-0.03122 0.40854,-0.0025 0.25192,0.15119 0.50095,0.306856 0.74678,0.467217 0.0988,0.06454 0.21184,0.251922 0.14661,0.348877 -0.0643,0.09623 -0.34506,-0.05212 -0.44074,-0.114584 -0.24126,-0.157447 -0.42103,-0.193155 -0.66863,-0.341715 -0.0981,-0.05883 -0.25067,-0.257424 -0.19261,-0.357332 10e-6,-8e-6 3e-5,-1.6e-5 5e-5,-2.3e-5 z"
           id="path775"
           sodipodi:nodetypes="ccccccscc"
           inkscape:label="sprinkles5_2" />
        <path
           style="fill:#f4f4e4;fill-opacity:1;fill-rule:evenodd;stroke:none;stroke-width:0.1;stroke-linecap:round;stroke-linejoin:round"
           d="m -219.96615,40.884777 c 0.0691,-0.09534 0.22979,0.01705 0.32451,0.09043 0.23404,0.181319 0.36172,0.285895 0.58191,0.481454 0.0889,0.07905 0.25474,0.234808 0.17511,0.320394 -0.0781,0.08453 -0.23191,-0.02094 -0.31614,-0.09575 -0.21341,-0.189519 -0.38792,-0.245806 -0.61447,-0.420891 -0.089,-0.06876 -0.21871,-0.282826 -0.15098,-0.375617 2e-5,-6e-6 3e-5,-1.2e-5 5e-5,-1.9e-5 z"
           id="path773"
           sodipodi:nodetypes="ccccccccc"
           inkscape:label="sprinkles5_1" />
        <path
           id="path206"
           style="vector-effect:non-scaling-stroke;fill:#f4f4e4;fill-opacity:1;fill-rule:evenodd;stroke-width:0.000551387;stroke-linecap:round;stroke-linejoin:round;-inkscape-stroke:hairline"
           d="m -218.04212,42.550533 -0.34951,0.109903 0.22221,-0.296218 -0.18213,-0.306921 0.33517,0.119975 0.25083,-0.268241 -0.042,0.369651 0.36408,0.141854 -0.36304,0.09785 -0.0239,0.366541 z"
           sodipodi:nodetypes="ccccccccccc"
           inkscape:label="star7" />
      </g>
      <g
         id="g5324"
         inkscape:label="sprinkles4"
         transform="matrix(3.6556041,0,0,3.6556041,864.43912,-43.096686)"
         style="display:inline;fill:#f4f4e4;fill-opacity:1">
        <path
           style="fill:#f4f4e4;fill-opacity:1;fill-rule:evenodd;stroke:none;stroke-width:0.0487331;stroke-linecap:round;stroke-linejoin:round"
           d="m -220.85328,43.159523 c 0.0273,-0.04998 0.15834,-0.0053 0.20843,0.02254 0.12479,0.06959 0.23908,0.110811 0.36199,0.183277 0.0494,0.02913 0.10875,0.11766 0.0795,0.166399 -0.0289,0.04858 -0.13741,0.0092 -0.18574,-0.01932 -0.12155,-0.07165 -0.24163,-0.112693 -0.36495,-0.181454 -0.0491,-0.02725 -0.12621,-0.121936 -0.0993,-0.171503 1e-5,-7e-6 2e-5,-8e-6 2e-5,-1.4e-5 z"
           id="path3138"
           sodipodi:nodetypes="ccscccccc"
           inkscape:label="sprinkles4_5" />
        <path
           style="fill:#f4f4e4;fill-opacity:1;fill-rule:evenodd;stroke:none;stroke-width:0.0487331;stroke-linecap:round;stroke-linejoin:round"
           d="m -219.88786,43.666494 c 0.0299,-0.04846 0.15163,0.01978 0.19999,0.05063 0.12052,0.07693 0.17361,0.08433 0.29209,0.164255 0.0475,0.03214 0.13432,0.107714 0.10205,0.154608 -0.0323,0.04652 -0.13728,0.03011 -0.18379,-0.0012 -0.11701,-0.0789 -0.20242,-0.114861 -0.32157,-0.190941 -0.0474,-0.03022 -0.11881,-0.129398 -0.0888,-0.177296 1e-5,-5e-6 2e-5,-8e-6 3e-5,-9e-6 z"
           id="path3140"
           sodipodi:nodetypes="ccccccccc"
           inkscape:label="sprinkles4_4" />
        <path
           style="fill:#f4f4e4;fill-opacity:1;fill-rule:evenodd;stroke:none;stroke-width:0.0487331;stroke-linecap:round;stroke-linejoin:round"
           d="m -218.91243,44.304978 c 0.0322,-0.04699 0.15157,-0.02007 0.1986,0.01272 0.11718,0.08176 0.24115,0.12927 0.35618,0.213699 0.0462,0.03393 0.0964,0.127974 0.0624,0.173533 -0.0336,0.04544 -0.13824,0.02469 -0.18347,-0.0085 -0.11375,-0.08348 -0.2285,-0.165669 -0.34431,-0.246453 -0.0461,-0.03203 -0.12122,-0.09837 -0.0895,-0.144992 1e-5,-6e-6 2e-5,-6e-6 2e-5,-1.2e-5 z"
           id="path823"
           sodipodi:nodetypes="ccccccscc"
           inkscape:label="sprinkles4_3" />
        <path
           style="fill:#f4f4e4;fill-opacity:1;fill-rule:evenodd;stroke:none;stroke-width:0.0487331;stroke-linecap:round;stroke-linejoin:round"
           d="m -217.99485,44.870617 c 0.0346,-0.04522 0.15259,-0.011 0.19761,0.02458 0.1122,0.08863 0.18599,0.134305 0.29586,0.225709 0.044,0.03674 0.0885,0.13381 0.0517,0.177232 -0.0368,0.04305 -0.12755,-0.0118 -0.17068,-0.04766 -0.10851,-0.09024 -0.18097,-0.134848 -0.29188,-0.222494 -0.0441,-0.03482 -0.1173,-0.11267 -0.0827,-0.157319 1e-5,-4e-6 2e-5,-6e-6 3e-5,-6e-6 z"
           id="path821"
           sodipodi:nodetypes="ccccccscc"
           inkscape:label="sprinkles4_2" />
        <path
           id="path218"
           style="vector-effect:non-scaling-stroke;fill:#f4f4e4;fill-opacity:1;fill-rule:evenodd;stroke-width:0.000468647;stroke-linecap:round;stroke-linejoin:round;-inkscape-stroke:hairline"
           d="m -216.87084,45.830255 -0.33369,0.142545 0.27275,-0.239326 -0.23868,-0.273307 0.31189,0.18544 0.18617,-0.311457 -0.08,0.353933 0.35375,0.08082 -0.36133,0.0333 0.0324,0.361405 z"
           sodipodi:nodetypes="ccccccccccc"
           inkscape:label="star6" />
        <path
           style="fill:#f4f4e4;fill-opacity:1;fill-rule:evenodd;stroke:none;stroke-width:0.0487331;stroke-linecap:round;stroke-linejoin:round"
           d="m -216.30291,46.24586 c 0.0412,-0.03949 0.15238,0.012 0.19158,0.05421 0.0974,0.104917 0.15302,0.197877 0.24636,0.306259 0.0375,0.0436 0.10498,0.16031 0.0613,0.196852 -0.0431,0.03634 -0.12411,-0.03351 -0.16043,-0.07575 -0.0916,-0.106401 -0.20126,-0.185116 -0.29702,-0.288219 -0.0379,-0.04083 -0.0825,-0.154479 -0.0418,-0.193379 1e-5,-4e-6 2e-5,-5e-6 3e-5,-4e-6 z"
           id="path817"
           sodipodi:nodetypes="ccccccscc"
           inkscape:label="sprinkles4_1" />
      </g>
      <g
         id="g5334"
         inkscape:label="sprinkles3"
         transform="matrix(3.6556041,0,0,3.6556041,864.43912,-43.096686)"
         style="display:inline;fill:#f4f4e4;fill-opacity:1">
        <path
           style="fill:#f4f4e4;fill-opacity:1;fill-rule:evenodd;stroke:none;stroke-width:0.1;stroke-linecap:round;stroke-linejoin:round"
           d="m -229.30705,42.984959 c 0.0147,-0.115926 0.25862,-0.177628 0.37516,-0.161325 0.29035,0.04062 0.58,0.08478 0.86889,0.13232 0.11585,0.01912 0.29529,0.144522 0.27538,0.2595 -0.0194,0.114391 -0.22995,0.17366 -0.34357,0.154961 -0.28566,-0.047 -0.57199,-0.09067 -0.85893,-0.130808 -0.114,-0.0159 -0.3319,-0.139731 -0.31696,-0.254615 l 3e-5,-4e-5 z"
           id="path866"
           inkscape:label="sprinkles3_6" />
        <path
           style="fill:#f4f4e4;fill-opacity:1;fill-rule:evenodd;stroke:none;stroke-width:0.1;stroke-linecap:round;stroke-linejoin:round"
           d="m -227.084,43.239259 c 0.0217,-0.114875 0.26894,-0.161964 0.38437,-0.138741 0.28763,0.05785 0.57456,0.119162 0.86052,0.184223 0.11473,0.02616 0.28635,0.162468 0.25934,0.276156 -0.0265,0.113032 -0.24035,0.159378 -0.35261,0.133849 -0.28239,-0.06423 -0.56588,-0.124833 -0.85022,-0.182083 -0.11302,-0.02271 -0.32328,-0.159479 -0.30144,-0.273362 10e-6,-1.1e-5 3e-5,-2.5e-5 4e-5,-3.7e-5 z"
           id="path864"
           inkscape:label="sprinkles3_5" />
        <path
           style="fill:#f4f4e4;fill-opacity:1;fill-rule:evenodd;stroke:none;stroke-width:0.1;stroke-linecap:round;stroke-linejoin:round"
           d="m -222.73806,44.265501 c 0.0385,-0.110491 0.28993,-0.119658 0.40085,-0.07892 0.27577,0.10137 0.54953,0.207676 0.82103,0.319194 0.10913,0.04491 0.28287,0.124672 0.23694,0.232122 -0.0452,0.106564 -0.26313,0.116362 -0.3688,0.07291 -0.26647,-0.109511 -0.53534,-0.213925 -0.80637,-0.313519 -0.10738,-0.03943 -0.32204,-0.122809 -0.28371,-0.231818 1e-5,-1e-5 3e-5,-2.2e-5 5e-5,-3.2e-5 z"
           id="path860"
           sodipodi:nodetypes="ccccccccc"
           inkscape:label="sprinkles3_4" />
        <path
           style="fill:#f4f4e4;fill-opacity:1;fill-rule:evenodd;stroke:none;stroke-width:0.1;stroke-linecap:round;stroke-linejoin:round"
           d="m -220.63083,44.987638 c 0.05,-0.106588 0.3018,-0.08729 0.40858,-0.03293 0.26384,0.134312 0.52215,0.277298 0.77505,0.428191 0.10212,0.06101 0.22131,0.244007 0.1591,0.342984 -0.0609,0.09765 -0.24602,0.02389 -0.34182,-0.03539 -0.29703,-0.183822 -0.49716,-0.302118 -0.75482,-0.404216 -0.10029,-0.05089 -0.29531,-0.194779 -0.24615,-0.298607 2e-5,-1e-5 2e-5,-1.9e-5 5e-5,-2.8e-5 z"
           id="path858"
           sodipodi:nodetypes="csccsccsc"
           inkscape:label="sprinkles3_3" />
        <path
           style="fill:#f4f4e4;fill-opacity:1;fill-rule:evenodd;stroke:none;stroke-width:0.1;stroke-linecap:round;stroke-linejoin:round"
           d="m -218.64408,46.001307 c 0.067,-0.09629 0.31165,-0.03625 0.40783,0.03436 0.23804,0.174719 0.43772,0.343053 0.66533,0.5304 0.0917,0.07556 0.1829,0.274914 0.10672,0.363997 -0.075,0.08823 -0.23292,0.0099 -0.32062,-0.06245 -0.22171,-0.182849 -0.4482,-0.359741 -0.67959,-0.529903 -0.0913,-0.06707 -0.24552,-0.242291 -0.17967,-0.336397 l 5e-5,-2e-5 z"
           id="path856"
           sodipodi:nodetypes="ccccscccc"
           inkscape:label="sprinkles3_2" />
        <path
           style="fill:#f4f4e4;fill-opacity:1;fill-rule:evenodd;stroke:none;stroke-width:0.1;stroke-linecap:round;stroke-linejoin:round"
           d="m -216.87528,47.159982 c 0.0797,-0.08648 0.25489,0.02844 0.34081,0.111109 0.21309,0.204989 0.42075,0.339419 0.62396,0.553083 0.0818,0.08601 0.24648,0.310396 0.1602,0.389966 -0.085,0.07901 -0.28874,-0.0013 -0.36772,-0.08431 -0.19921,-0.209331 -0.44036,-0.37683 -0.64873,-0.577426 -0.0824,-0.07929 -0.18738,-0.307567 -0.10875,-0.392366 l 4e-5,-1.2e-5 z"
           id="path854"
           sodipodi:nodetypes="ccscccccc"
           inkscape:label="sprinkles3_1" />
        <path
           id="path102"
           style="vector-effect:non-scaling-stroke;fill:#f4f4e4;fill-opacity:1;fill-rule:evenodd;stroke-width:0.000858993;stroke-linecap:round;stroke-linejoin:round;-inkscape-stroke:hairline"
           d="m -224.10144,43.882046 -0.57983,0.20926 0.38078,-0.44541 -0.31834,-0.494206 0.53448,0.254636 0.37844,-0.485616 -0.0721,0.617466 0.5739,0.179396 -0.58825,0.115242 -0.0145,0.608224 z"
           sodipodi:nodetypes="ccccccccccc"
           inkscape:label="star5" />
        <path
           id="path210"
           style="vector-effect:non-scaling-stroke;fill:#f4f4e4;fill-opacity:1;fill-rule:evenodd;stroke-width:0.000858993;stroke-linecap:round;stroke-linejoin:round;-inkscape-stroke:hairline"
           d="m -214.99827,49.071135 -0.61163,0.261272 0.49992,-0.438665 -0.43748,-0.500951 0.57167,0.339897 0.34125,-0.570877 -0.14661,0.648733 0.64839,0.148129 -0.66229,0.06104 0.0595,0.662426 z"
           inkscape:label="star4" />
      </g>
      <g
         id="g5305"
         inkscape:label="sprinkles2"
         transform="matrix(3.6556041,0,0,3.6556041,804.96939,-57.465963)"
         style="display:inline;fill:#f4f4e4;fill-opacity:1">
        <path
           style="fill:#f4f4e4;fill-opacity:1;fill-rule:evenodd;stroke:none;stroke-width:0.0487331;stroke-linecap:round;stroke-linejoin:round"
           d="m -206.50692,50.044844 c 0.01,-0.05606 0.12957,-0.08119 0.18597,-0.07086 0.14051,0.02577 0.32828,0.06205 0.46797,0.09112 0.0561,0.01171 0.14081,0.07642 0.12875,0.132 -0.0117,0.05526 -0.11552,0.07985 -0.17045,0.06842 -0.13818,-0.02869 -0.32426,-0.06477 -0.46315,-0.09018 -0.0553,-0.01 -0.15878,-0.07479 -0.14913,-0.130458 0,-2e-6 1e-5,-6e-6 1e-5,-1.7e-5 z"
           id="path736"
           sodipodi:nodetypes="ccccccscc"
           inkscape:label="sprinkles2_5" />
        <path
           id="path214"
           style="vector-effect:non-scaling-stroke;fill:#f4f4e4;fill-opacity:1;fill-rule:evenodd;stroke-width:0.000468647;stroke-linecap:round;stroke-linejoin:round;-inkscape-stroke:hairline"
           d="m -204.89505,50.416639 -0.0631,0.357327 -0.0512,-0.359225 -0.35934,0.05037 0.32581,-0.159721 -0.15894,-0.326198 0.25261,0.260499 0.2611,-0.251976 -0.1697,0.320725 0.32029,0.170506 z"
           inkscape:label="star3" />
        <path
           style="fill:#f4f4e4;fill-opacity:1;fill-rule:evenodd;stroke:none;stroke-width:0.0487331;stroke-linecap:round;stroke-linejoin:round"
           d="m -204.31638,50.458382 c 0.0166,-0.05456 0.13894,-0.06414 0.19371,-0.04662 0.13631,0.04365 0.25587,0.107199 0.39057,0.155005 0.0541,0.01923 0.12915,0.09509 0.10992,0.148105 -0.0193,0.05306 -0.10922,0.0452 -0.1619,0.02654 -0.13267,-0.04698 -0.26621,-0.09195 -0.40061,-0.134871 -0.0534,-0.01702 -0.14807,-0.09426 -0.13138,-0.148385 1e-5,-5e-6 3e-5,-1.5e-5 2e-5,-1.1e-5 z"
           id="path732"
           sodipodi:nodetypes="ccccccccc"
           inkscape:label="sprinkles2_4" />
        <path
           style="fill:#f4f4e4;fill-opacity:1;fill-rule:evenodd;stroke:none;stroke-width:0.0487331;stroke-linecap:round;stroke-linejoin:round"
           d="m -203.27194,50.771857 c 0.0211,-0.05305 0.14362,-0.05232 0.1968,-0.03022 0.1322,0.05501 0.24711,0.132155 0.377,0.192035 0.052,0.02439 0.13618,0.08669 0.1116,0.138017 -0.0241,0.05102 -0.12837,0.04057 -0.17894,0.01725 -0.12752,-0.05878 -0.25842,-0.104389 -0.38835,-0.158431 -0.0515,-0.02141 -0.13913,-0.1063 -0.11858,-0.15834 0,4e-6 1e-5,-6e-6 2e-5,-1e-5 z"
           id="path730"
           sodipodi:nodetypes="ccccccccc"
           inkscape:label="sprinkles2_3" />
        <path
           id="path216"
           style="vector-effect:non-scaling-stroke;fill:#f4f4e4;fill-opacity:1;fill-rule:evenodd;stroke-width:0.000468647;stroke-linecap:round;stroke-linejoin:round;-inkscape-stroke:hairline"
           d="m -201.89271,51.390869 -0.0631,0.357326 -0.0512,-0.359231 -0.35934,0.05038 0.32581,-0.159721 -0.15895,-0.326198 0.25262,0.260499 0.2611,-0.251976 -0.16971,0.32073 0.32035,0.17042 z"
           inkscape:label="star2" />
        <path
           style="fill:#f4f4e4;fill-opacity:1;fill-rule:evenodd;stroke:none;stroke-width:0.0487331;stroke-linecap:round;stroke-linejoin:round"
           d="m -201.34421,51.633862 c 0.0261,-0.05093 0.14813,-0.03785 0.19919,-0.01007 0.12638,0.06883 0.23304,0.146609 0.35525,0.222117 0.0491,0.03066 0.12383,0.115462 0.0929,0.163451 -0.0304,0.04749 -0.13803,0.01724 -0.18508,-0.01197 -0.11904,-0.07383 -0.23805,-0.127115 -0.36089,-0.194191 -0.0486,-0.02612 -0.12705,-0.119589 -0.10132,-0.169383 0,-4e-6 10e-6,-6e-6 2e-5,-1.2e-5 z"
           id="path10728"
           sodipodi:nodetypes="ccccccscc"
           inkscape:label="sprinkles2_2" />
        <path
           style="fill:#f4f4e4;fill-opacity:1;fill-rule:evenodd;stroke:none;stroke-width:0.0487331;stroke-linecap:round;stroke-linejoin:round"
           d="m -200.35755,52.256018 c 0.0339,-0.04609 0.15308,0.01723 0.19902,0.05283 0.11372,0.08819 0.22394,0.148747 0.33247,0.242863 0.0435,0.03813 0.0855,0.136271 0.0473,0.178678 -0.0376,0.04201 -0.12594,-0.0105 -0.1677,-0.04687 -0.10567,-0.09195 -0.22768,-0.15822 -0.33818,-0.244113 -0.0438,-0.03357 -0.10625,-0.138402 -0.0729,-0.18343 0,-4e-6 1e-5,-4e-6 2e-5,-8e-6 z"
           id="path433"
           sodipodi:nodetypes="ccccccscc"
           inkscape:label="sprinkles2_1" />
      </g>
      <g
         id="g5344"
         inkscape:label="sprinkles1"
         transform="matrix(3.6556041,0,0,3.6556041,864.43912,-43.096686)"
         style="display:inline;fill:#f4f4e4;fill-opacity:1">
        <path
           style="fill:#f4f4e4;fill-opacity:1;fill-rule:evenodd;stroke:none;stroke-width:0.0487331;stroke-linecap:round;stroke-linejoin:round"
           d="m -221.77557,47.913891 c 0.004,-0.05682 0.11324,-0.06413 0.1704,-0.05962 0.14244,0.01124 0.28463,0.02421 0.42656,0.03885 0.057,0.0059 0.15524,0.03176 0.14893,0.08828 -0.006,0.05619 -0.112,0.05868 -0.16782,0.05292 -0.14034,-0.01447 -0.27566,0.0052 -0.41642,-0.0059 -0.056,-0.0043 -0.16555,-0.05823 -0.16166,-0.11455 0,-7e-6 1e-5,-1.3e-5 1e-5,-2e-5 z"
           id="path914"
           sodipodi:nodetypes="csccccssc"
           inkscape:label="sprinkles1_4" />
        <path
           style="fill:#f4f4e4;fill-opacity:1;fill-rule:evenodd;stroke:none;stroke-width:0.0487331;stroke-linecap:round;stroke-linejoin:round"
           d="m -220.6867,47.972311 c 0.007,-0.05652 0.12606,-0.08668 0.18289,-0.07877 0.14162,0.01969 0.28053,0.0699 0.42155,0.09316 0.0566,0.0094 0.14653,0.04182 0.13672,0.09791 -0.01,0.05576 -0.11739,0.05997 -0.17274,0.05085 -0.13925,-0.02295 -0.27378,-0.01947 -0.41378,-0.03898 -0.0557,-0.0077 -0.16195,-0.06809 -0.15466,-0.124124 0,-6e-6 1e-5,-1.3e-5 2e-5,-1.9e-5 z"
           id="path912"
           sodipodi:nodetypes="scccscscs"
           inkscape:label="sprinkles1_3" />
        <path
           style="fill:#f4f4e4;fill-opacity:1;fill-rule:evenodd;stroke:none;stroke-width:0.0487331;stroke-linecap:round;stroke-linejoin:round"
           d="m -219.60251,48.097503 c 0.011,-0.05599 0.13166,-0.078 0.18793,-0.06616 0.14008,0.02946 0.27961,0.061 0.4185,0.09477 0.0558,0.01359 0.13824,0.08128 0.12414,0.136408 -0.0138,0.05473 -0.10589,0.04526 -0.1602,0.03208 -0.13675,-0.03321 -0.27423,-0.06424 -0.4123,-0.09324 -0.0548,-0.01149 -0.16906,-0.04846 -0.15809,-0.103835 1e-5,-6e-6 2e-5,-1.2e-5 2e-5,-1.9e-5 z"
           id="path909"
           sodipodi:nodetypes="cccccccc"
           inkscape:label="sprinkles1_2" />
        <path
           id="path212"
           style="vector-effect:non-scaling-stroke;fill:#f4f4e4;fill-opacity:1;fill-rule:evenodd;stroke-width:0.000468647;stroke-linecap:round;stroke-linejoin:round;-inkscape-stroke:hairline"
           d="m -218.28008,48.556137 -0.29955,0.08258 0.19091,-0.243891 -0.15684,-0.268742 0.2812,0.11994 0.21686,-0.245957 -0.0363,0.323801 0.31006,0.110952 -0.29717,0.07505 -0.0317,0.319653 z"
           sodipodi:nodetypes="ccccccccccc"
           inkscape:label="star1" />
        <path
           style="fill:#f4f4e4;fill-opacity:1;fill-rule:evenodd;stroke:none;stroke-width:0.0487331;stroke-linecap:round;stroke-linejoin:round"
           d="m -217.48134,48.63054 c 0.0212,-0.05331 0.14425,-0.05132 0.19778,-0.02802 0.13229,0.05758 0.2596,0.09274 0.38705,0.158713 0.0515,0.02667 0.11482,0.112197 0.0874,0.162173 -0.0268,0.04929 -0.1325,0.04429 -0.18126,0.01906 -0.12353,-0.06393 -0.24927,-0.123863 -0.37727,-0.179404 -0.0503,-0.02181 -0.13466,-0.08055 -0.1138,-0.132503 l 3e-5,-1.5e-5 z"
           id="path903"
           sodipodi:nodetypes="csccccccc"
           inkscape:label="sprinkles1_1" />
      </g>
    </g>
    <rect
       style="font-variation-settings:normal;opacity:1;vector-effect:none;fill:#ffccaa;fill-opacity:1;fill-rule:evenodd;stroke:none;stroke-width:0.467897;stroke-linecap:butt;stroke-linejoin:miter;stroke-miterlimit:4;stroke-dasharray:none;stroke-dashoffset:0;stroke-opacity:1;stop-color:#000000;stop-opacity:1"
       id="rect11904"
       width="212.86909"
       height="32.810776"
       x="32.477489"
       y="136.63005"
       ry="2.6443308e-06" />
  </g>
</svg>
