<?xml version="1.0" encoding="UTF-8" standalone="no"?>
<!-- Created with Inkscape (http://www.inkscape.org/) -->

<svg
   width="409.37219mm"
   height="42.376236mm"
   viewBox="0 0 409.37219 42.376236"
   version="1.1"
   id="svg5"
   inkscape:version="1.1.1 (3bf5ae0d25, 2021-09-20)"
   sodipodi:docname="SVG-Animations-title.svg"
   xmlns:inkscape="http://www.inkscape.org/namespaces/inkscape"
   xmlns:sodipodi="http://sodipodi.sourceforge.net/DTD/sodipodi-0.dtd"
   xmlns="http://www.w3.org/2000/svg"
   xmlns:svg="http://www.w3.org/2000/svg">
  <sodipodi:namedview
     id="namedview7"
     pagecolor="#ffffff"
     bordercolor="#999999"
     borderopacity="1"
     inkscape:pageshadow="0"
     inkscape:pageopacity="0"
     inkscape:pagecheckerboard="0"
     inkscape:document-units="mm"
     showgrid="false"
     inkscape:zoom="0.90583672"
     inkscape:cx="750.13519"
     inkscape:cy="72.308837"
     inkscape:window-width="1920"
     inkscape:window-height="1012"
     inkscape:window-x="-8"
     inkscape:window-y="-8"
     inkscape:window-maximized="1"
     inkscape:current-layer="g1332"
     fit-margin-top="0"
     fit-margin-left="0"
     fit-margin-right="0"
     fit-margin-bottom="0"
     showguides="true"
     inkscape:guide-bbox="true" />
  <defs
     id="defs2">
    <rect
       x="-855.55048"
       y="432.45892"
       width="1640.8459"
       height="362.20386"
       id="rect451" />
  </defs>
  <g
     inkscape:label="Ebene 1"
     inkscape:groupmode="layer"
     id="layer1"
     transform="translate(149.32289,-137.03975)">
    <g
       id="g1475"
       inkscape:label="SVG-Animations"
       sodipodi:insensitive="true">
      <g
         id="g1332"
         inkscape:label="letter_1">
        <path
           d="m -123.16683,167.37149 c -0.28998,-2.6678 -1.15992,-5.10362 -2.66781,-7.30746 -0.75394,-1.04392 -1.56588,-2.02984 -2.37782,-3.01577 -1.2759,-1.50789 -2.55181,-2.95778 -3.82771,-4.40767 -0.98593,-1.21791 -1.79787,-2.55181 -2.37783,-4.0017 -0.11599,-0.28998 -0.11599,-0.63796 -0.23198,-1.04393 1.73987,-0.52196 3.30575,-0.92793 4.92963,-1.39189 0.63796,-2.31983 1.27591,-4.52367 1.85587,-6.7275 0,-0.11599 -0.058,-0.23199 -0.058,-0.40597 -0.17399,-0.058 -0.28998,-0.23199 -0.46397,-0.23199 -1.97185,-0.69594 -4.0017,-1.04392 -6.14754,-0.86993 -0.63795,0.058 -1.2759,0.17399 -1.97185,0.34797 -1.97185,0.52196 -4.0017,1.04393 -5.97356,1.56589 -1.85586,0.52196 -3.13176,1.62388 -3.9437,3.36375 -0.46397,1.04392 -0.75395,2.14584 -0.86994,3.30575 -0.23198,3.30575 0.34798,6.43752 1.85586,9.3953 0.92793,1.91386 2.14584,3.53774 3.53774,5.16162 1.15991,1.3339 2.20384,2.72579 3.30575,4.11769 0.23199,0.28998 0.34798,0.57996 0.52197,0.92793 -0.34798,0.11599 -0.63796,0.28998 -0.92794,0.34798 -1.2759,0.34797 -2.6098,0.69594 -3.9437,1.10191 -0.40597,0.11599 -0.86994,0.28998 -1.21791,0.52196 -1.56588,1.10192 -3.07377,2.20384 -4.58166,3.36375 -0.23198,0.17399 -0.40597,0.46397 -0.57996,0.69595 1.27591,1.62388 2.55181,3.13177 4.00171,4.46567 0.98592,0.81194 1.97185,1.50789 3.13176,2.02985 1.68188,0.81194 3.47974,0.92793 5.3356,0.46396 2.08785,-0.57995 4.23369,-1.10191 6.37953,-1.73987 2.7258,-0.81194 4.81364,-2.43581 6.20554,-4.92963 0.86993,-1.56588 1.2759,-3.30575 1.10192,-5.10362 z m -1.50789,4.0017 c -1.21791,2.55181 -3.18976,4.23369 -5.85757,5.10362 -1.56588,0.52196 -3.13176,0.40597 -4.69765,-0.23198 -1.15991,-0.52196 -2.26183,-1.21791 -3.18976,-2.08784 -1.04392,-1.10192 -2.02985,-2.20384 -3.07377,-3.30576 -0.058,-0.11599 -0.11599,-0.23198 -0.17399,-0.34797 0.86994,-0.81194 3.30576,-2.60981 4.46567,-3.24776 0.17399,0.17399 0.34797,0.34797 0.52196,0.52196 0.52196,0.63795 1.04392,1.3339 1.62388,1.91386 0.46397,0.40597 0.98593,0.75394 1.56588,1.04392 0.75395,0.40597 1.56589,0.23198 2.20384,-0.28998 1.21791,-1.04392 1.73987,-2.31983 1.44989,-3.9437 -0.17398,-0.98593 -0.63795,-1.91386 -1.15991,-2.7838 -0.81194,-1.44989 -1.85586,-2.6678 -2.95778,-3.9437 -0.57996,-0.69595 -1.21791,-1.3919 -1.79787,-2.08785 -1.91385,-2.31983 -3.30575,-4.92963 -3.9437,-7.88741 -0.40597,-1.85586 -0.52196,-3.71172 -0.17399,-5.56759 0.11599,-0.63795 0.28998,-1.2759 0.52196,-1.91385 0.75394,-2.08785 2.26183,-3.24776 4.46567,-3.47975 1.97185,-0.23198 3.9437,0.058 6.03155,0.75395 -0.52196,1.91386 -0.98593,3.71172 -1.44989,5.56758 -0.57996,-0.11599 -1.15992,-0.28997 -1.68188,-0.34797 -0.69595,-0.17399 -1.3339,-0.17399 -1.97185,0 -1.04392,0.28998 -1.56588,0.98593 -1.62388,2.02985 0,0.40597 0.058,0.86993 0.17399,1.3339 0.34797,1.44989 1.10191,2.78379 2.02985,4.0017 0.86993,1.15992 1.79786,2.26183 2.72579,3.42175 0.75395,0.86993 1.56589,1.68187 2.31983,2.55181 1.10192,1.2759 2.02985,2.6098 2.78379,4.05969 0.92793,1.68188 1.3919,3.53774 1.56589,5.4516 0.11599,1.2759 -0.17399,2.55181 -0.69595,3.71172 z"
           style="font-size:96px;line-height:125%;font-family:'GOOD PEOPLE';-inkscape-font-specification:'GOOD PEOPLE';font-variant-ligatures:no-common-ligatures;letter-spacing:0px;word-spacing:0px;white-space:pre;fill:#000000;stroke:none;stroke-width:0.604122px"
           id="path4166"
           inkscape:label="shadow_1" />
        <path
           style="font-size:96px;line-height:125%;font-family:'Times New Roman';-inkscape-font-specification:'Times New Roman, ';font-variant-ligatures:no-common-ligatures;letter-spacing:0px;word-spacing:0px;white-space:pre;opacity:0.510086;fill:#e0bbe4;fill-opacity:1;fill-rule:evenodd;stroke:none;stroke-width:0.0565774;stroke-linecap:round;stroke-linejoin:round"
           d="m -133.40465,176.70499 c -1.6251,-0.23702 -3.66227,-1.29359 -4.95497,-2.56987 -0.78408,-0.77412 -3.08374,-3.27503 -3.18181,-3.46026 -0.077,-0.14538 -0.0427,-0.19512 0.38319,-0.55645 0.69912,-0.5931 2.01121,-1.56022 3.03007,-2.23341 l 0.9047,-0.59776 0.18037,0.16716 c 0.0992,0.0919 0.37996,0.41361 0.62391,0.71482 1.22901,1.51752 1.87694,2.09457 2.89511,2.57842 0.96623,0.45916 1.78161,0.25009 2.66121,-0.68234 1.51071,-1.60143 1.51151,-3.55736 0.002,-6.17481 -0.81995,-1.42225 -1.39567,-2.19437 -3.20728,-4.30133 -2.30338,-2.67891 -2.92959,-3.5104 -3.76548,-4.99985 -1.95187,-3.47799 -2.68297,-7.83802 -1.85263,-11.04842 0.40165,-1.55292 0.84453,-2.41215 1.66812,-3.23632 0.67141,-0.67188 1.29449,-1.02266 2.2701,-1.27802 0.84394,-0.22089 2.76416,-0.27397 3.90667,-0.10799 0.87633,0.12731 2.75803,0.58011 2.86808,0.69015 0.0361,0.0361 -0.14625,0.86467 -0.42178,1.9166 -0.26695,1.01915 -0.58576,2.23911 -0.70847,2.71101 -0.12272,0.47191 -0.24973,0.85801 -0.28224,0.85801 -0.0325,0 -0.27502,-0.0501 -0.53891,-0.11127 -1.43183,-0.33207 -2.28513,-0.39847 -2.92478,-0.2276 -0.79454,0.21224 -1.29112,0.60576 -1.57942,1.25164 -0.41723,0.93471 0.0145,2.93701 1.00373,4.65472 0.71204,1.23645 3.04005,4.18976 4.99374,6.33506 1.35556,1.48851 1.74884,1.96307 2.48116,2.9939 1.72578,2.42926 2.68504,4.89541 2.90358,7.46478 0.15865,1.86526 -0.30727,3.55613 -1.45185,5.26893 -1.76655,2.64353 -5.20492,4.37454 -7.90663,3.9805 z"
           id="path4370"
           inkscape:label="fill_1" />
      </g>
      <g
         id="g1336"
         inkscape:label="letter_2">
        <path
           d="m -97.474819,139.12759 c -1.681875,-0.57995 -3.363751,-1.15991 -5.045621,-1.73987 -0.34798,-0.17398 -0.63796,-0.11599 -0.98593,0 -1.2759,0.34798 -2.60981,0.69595 -3.88571,1.04392 -0.75394,0.17399 -1.50789,0.40597 -2.26183,0.57996 -0.17399,0.46397 -0.34798,0.81194 -0.57996,1.3919 -0.46396,-1.15992 -0.81194,-2.14584 -1.21791,-3.24776 -0.40597,0.058 -0.63795,0.058 -0.81194,0.11599 -3.59573,0.98593 -7.19146,1.91386 -10.7872,2.89979 -0.23198,0.058 -0.52196,0.17398 -0.75394,0.28997 -0.23198,0.116 -0.34797,0.34798 -0.23198,0.63796 0.058,0.17398 0.11599,0.34797 0.17399,0.52196 0.86993,1.97185 1.56588,4.0597 1.91385,6.20554 0.46397,2.78379 0.86994,5.62558 1.21791,8.40937 0.57996,3.94371 1.21791,7.88741 2.20384,11.77312 0.46396,1.79787 1.04392,3.53774 1.62388,5.33561 0.34797,1.10191 0.98592,2.08784 1.85586,2.84178 0.92793,0.81194 1.97185,1.15992 3.18976,0.81194 1.97185,-0.57995 3.94371,-1.10191 5.91556,-1.62387 1.3919,-0.34798 2.31983,-1.27591 2.89979,-2.55182 0.11599,-0.34797 0.28997,-0.69594 0.34797,-1.10191 1.50789,-5.27761 2.49381,-10.61321 3.015775,-16.06481 0.231983,-2.72579 0.521961,-5.45159 0.81194,-8.17739 0.231983,-2.31983 0.811939,-4.52366 1.623879,-6.7275 0.115991,-0.34797 0.231983,-0.69595 0.40597,-1.10192 -0.231983,-0.17398 -0.40597,-0.40597 -0.637953,-0.52196 z m -0.637952,1.62388 c -1.101918,2.84179 -1.565884,5.79957 -1.855862,8.81535 -0.405967,4.05969 -0.811937,8.11939 -1.333897,12.12109 -0.40597,3.42175 -1.3339,6.7275 -2.26184,10.03326 -0.23198,0.75394 -0.57995,1.44989 -1.15991,2.02985 -1.04392,0.92793 -2.14584,0.98592 -3.24776,0.11599 -0.86993,-0.69595 -1.39189,-1.56589 -1.73987,-2.60981 -0.57995,-1.85586 -1.15991,-3.65373 -1.62388,-5.50959 -0.86993,-3.36375 -1.44989,-6.84349 -1.91385,-10.32323 -0.40597,-2.89978 -0.81194,-5.79957 -1.27591,-8.64136 -0.34797,-2.20383 -0.98593,-4.34967 -1.73987,-6.43752 -0.11599,-0.28998 -0.23198,-0.57995 -0.28998,-0.92793 1.50789,-0.46396 2.95778,-0.92793 4.52366,-1.21791 0.17399,0.28998 0.28998,0.57996 0.40597,0.86994 0.92794,2.6098 1.50789,5.3356 2.14584,8.0614 0.57996,2.89978 1.21791,5.79957 1.91386,8.69935 0.058,0.52196 0.058,1.10192 0.52196,1.44989 0.52196,-0.17399 0.63796,-0.63795 0.69595,-1.04392 0.28998,-1.44989 0.57996,-2.89978 0.81194,-4.34968 0.63795,-3.30575 1.21791,-6.6695 1.85586,-10.03325 0.23199,-1.15991 0.63796,-2.31983 0.92793,-3.42175 0.98593,0.058 3.01578,0.69595 4.75565,1.56589 -0.058,0.23198 -0.058,0.52196 -0.115991,0.75394 z"
           style="font-size:96px;line-height:125%;font-family:'GOOD PEOPLE';-inkscape-font-specification:'GOOD PEOPLE';font-variant-ligatures:no-common-ligatures;letter-spacing:0px;word-spacing:0px;white-space:pre;fill:#000000;stroke:none;stroke-width:0.604122px"
           id="path4168"
           inkscape:label="shadow_2" />
        <path
           style="font-size:96px;line-height:125%;font-family:'Times New Roman';-inkscape-font-specification:'Times New Roman, ';font-variant-ligatures:no-common-ligatures;letter-spacing:0px;word-spacing:0px;white-space:pre;opacity:0.510086;fill:#957dad;fill-opacity:1;fill-rule:evenodd;stroke:none;stroke-width:0.0565774;stroke-linecap:round;stroke-linejoin:round"
           d="m -107.02483,174.3518 c -0.50636,-0.18937 -0.91082,-0.4779 -1.41712,-1.01096 -0.74058,-0.77972 -1.01186,-1.35954 -1.7387,-3.71625 -1.55683,-5.04793 -2.1028,-7.66637 -3.18871,-15.293 -1.26437,-8.87992 -1.5641,-10.37366 -2.739,-13.6501 -0.50056,-1.39591 -0.59951,-1.19351 0.78474,-1.60522 0.98444,-0.2928 2.30041,-0.63708 3.10542,-0.81243 0.13024,-0.0284 0.19033,0.0195 0.30383,0.24195 0.5762,1.12946 1.78785,5.65892 2.70983,10.1301 0.32712,1.58636 1.04701,4.84924 1.35332,6.13383 0.10534,0.44178 0.23592,1.07474 0.29019,1.40658 0.10153,0.62085 0.33119,1.11267 0.51959,1.11267 0.19444,0 0.44403,-0.21914 0.5632,-0.4945 0.11502,-0.26576 0.44521,-1.86908 0.80798,-3.92332 0.16654,-0.9431 1.1112,-6.09273 1.80166,-9.82143 0.25221,-1.36201 1.02347,-4.3914 1.1567,-4.54336 0.1428,-0.16287 2.47958,0.52838 3.922641,1.16036 l 0.756759,0.33142 -0.04449,0.30267 c -0.02447,0.16647 -0.202774,0.77915 -0.396232,1.36149 -0.875519,2.63551 -1.147509,4.20137 -1.747598,10.06106 -0.9895,9.66207 -1.35281,12.22457 -2.22817,15.71564 -0.45876,1.82959 -1.16099,4.33613 -1.34705,4.80817 -0.33848,0.85872 -0.99421,1.62995 -1.66481,1.95805 -0.46444,0.22723 -1.17121,0.29347 -1.56397,0.14658 z"
           id="path4409"
           inkscape:label="fill_2" />
      </g>
      <g
         id="g1340"
         inkscape:label="letter_3"
         sodipodi:insensitive="true">
        <path
           d="m -66.911196,165.68962 c -0.347975,-3.18977 -1.101918,-6.37953 -1.739871,-9.5113 -0.058,-0.34797 -0.289978,-0.63795 -0.40597,-0.98592 -0.289978,0 -0.521961,-0.058 -0.753944,-0.058 -2.841788,-0.058 -5.741572,-0.11599 -8.641356,-0.23198 -1.275905,0 -2.551811,-0.058 -3.76972,0.46396 -0.058,0 -0.173987,-0.058 -0.40597,-0.058 0.231983,-2.37782 0.637953,-4.58166 2.145841,-6.55351 1.101918,0.11599 2.029849,-0.23199 3.015775,-0.46397 1.159914,-0.34797 2.319828,-0.63795 3.479741,-0.92793 0.40597,-0.11599 0.81194,-0.28998 1.275905,-0.40597 0.173987,-1.50789 0.347974,-2.95778 0.579957,-4.40767 0.289978,-1.44989 0.637953,-2.84179 0.985927,-4.34968 -0.40597,-0.11599 -0.753944,-0.28998 -1.159914,-0.28998 -0.869935,-0.11599 -1.739871,-0.17398 -2.609806,-0.23198 -1.913857,-0.17399 -3.769719,0 -5.567585,0.46397 -2.145841,0.57995 -4.233685,1.21791 -6.379526,1.73987 -2.377823,0.63795 -4.233684,2.02985 -5.625581,4.0017 -1.043922,1.50789 -1.913857,3.13177 -2.493814,4.87164 -0.637953,2.02985 -1.275905,4.11769 -1.797866,6.20553 -0.695949,2.7258 -1.043923,5.4516 -0.869936,8.1774 0.058,1.97185 0.521962,3.82771 1.449893,5.50959 3.421745,6.08954 8.525365,9.56928 15.774825,9.45329 1.565884,0 3.189763,0.058 4.755646,0.11599 0.579957,0 1.159914,0 1.739871,-0.17398 1.855862,-0.52196 3.711724,-0.98593 5.625581,-1.50789 0.231983,-0.058 0.463966,-0.17399 0.695948,-0.28998 0.115992,-0.28998 0.231983,-0.52196 0.289979,-0.75394 0.869935,-3.24776 0.811939,-6.49552 0.40597,-9.80127 z m -0.927931,8.35137 c -0.058,0.34798 -0.115992,0.63796 -0.231983,0.92794 -0.058,0.17398 -0.115992,0.28997 -0.173987,0.57995 -0.40597,0 -0.81194,0 -1.159914,0 -1.681875,0 -3.305754,-0.11599 -4.929633,-0.058 -6.205538,0.058 -10.729201,-2.89979 -14.092951,-7.88742 -1.855862,-2.84178 -2.261832,-6.03155 -1.913857,-9.3373 0.347974,-3.71173 1.3339,-7.30746 2.55181,-10.84519 0.637952,-1.68188 1.449892,-3.30576 2.493814,-4.81365 1.681875,-2.43581 4.059698,-3.65372 6.901486,-3.9437 1.739871,-0.11599 3.479741,0 5.219612,0 0.289978,0 0.579957,0.11599 0.985926,0.23198 -0.289978,1.21791 -0.521961,2.31983 -0.753944,3.47974 -0.173987,1.21791 -0.347974,2.37782 -0.521961,3.59573 -0.289978,0 -0.579957,0.058 -0.869935,0 -1.101918,-0.11599 -2.203836,-0.17398 -3.305754,0.058 -1.681875,0.28998 -2.899784,1.21791 -3.827715,2.60981 -0.985927,1.44989 -1.507888,3.13176 -1.797866,4.81364 -0.289979,1.79786 -0.40597,3.65372 -0.231983,5.45159 0.058,1.10192 0.231983,2.20384 0.579957,3.24776 0.869935,2.6678 2.493814,4.63965 5.277607,5.56758 1.101918,0.40597 2.319827,0.52197 3.537737,0.46397 0.579957,-0.058 0.753944,-0.23198 0.753944,-0.86993 -0.115992,-1.50789 -0.231983,-2.95778 -0.40597,-4.46567 0,-0.57996 -0.231983,-0.75395 -0.869935,-0.75395 -1.507888,-0.11599 -3.073772,-0.17398 -4.639655,-0.23198 -0.231983,0 -0.521961,-0.058 -0.753944,-0.058 -0.347974,-1.15992 -0.40597,-4.52367 -0.173987,-5.85757 0.115991,0 0.231983,-0.11599 0.347974,-0.058 3.247758,0 6.495517,0.058 9.685279,0.11599 0.173987,0 0.347974,0.058 0.579957,0.058 0.40597,1.3919 0.695948,2.7838 0.927931,4.17569 0.347974,1.79787 0.695948,3.65373 0.927931,5.4516 0.347974,2.78379 0.40597,5.56758 -0.115991,8.35137 z"
           style="font-size:96px;line-height:125%;font-family:'GOOD PEOPLE';-inkscape-font-specification:'GOOD PEOPLE';font-variant-ligatures:no-common-ligatures;letter-spacing:0px;word-spacing:0px;white-space:pre;fill:#000000;stroke:none;stroke-width:0.604122px"
           id="path4170"
           inkscape:label="shadow_3" />
        <path
           style="font-size:96px;line-height:125%;font-family:'Times New Roman';-inkscape-font-specification:'Times New Roman, ';font-variant-ligatures:no-common-ligatures;letter-spacing:0px;word-spacing:0px;white-space:pre;opacity:0.510086;fill:#d291bc;fill-opacity:1;fill-rule:evenodd;stroke:none;stroke-width:0.0565774;stroke-linecap:round;stroke-linejoin:round"
           d="m -72.985293,175.46867 c -3.24263,-0.05 -3.902398,-0.10474 -5.352867,-0.44393 -3.386791,-0.792 -6.407735,-2.77555 -8.846625,-5.80868 -2.052002,-2.55198 -2.921354,-4.65275 -3.18413,-7.69438 -0.259173,-2.99989 0.541795,-7.73339 2.137187,-12.63022 0.706919,-2.16979 1.314734,-3.56109 2.237301,-5.12127 1.730447,-2.9264 3.818147,-4.43933 6.838323,-4.95566 0.743979,-0.12718 1.187699,-0.14612 3.424407,-0.14612 2.079334,0 2.652141,0.0215 3.001838,0.11257 0.237691,0.0619 0.445074,0.12547 0.460851,0.14125 0.01577,0.0158 -0.103679,0.63053 -0.265464,1.36612 -0.397246,1.80618 -0.412454,1.88999 -0.705313,3.88684 -0.140851,0.96038 -0.272241,1.7623 -0.291973,1.78203 -0.01974,0.0197 -0.579655,-0.006 -1.244269,-0.0576 -1.711378,-0.13238 -2.894256,-0.006 -4.015251,0.4277 -1.97758,0.76579 -3.535159,2.9645 -4.273576,6.03268 -0.754902,3.13667 -0.706115,7.27138 0.115498,9.78831 0.771255,2.36269 2.093042,4.03811 3.955987,5.0144 1.225843,0.64242 2.393902,0.96624 3.791418,1.05112 1.001207,0.0608 1.448938,-5.2e-4 1.678162,-0.22969 0.149453,-0.14946 0.173387,-0.2439 0.173387,-0.68421 0,-0.53431 -0.15567,-2.46751 -0.323681,-4.01966 -0.111493,-1.03003 -0.173275,-1.13326 -0.720029,-1.20309 -0.321583,-0.0411 -2.35235,-0.15002 -4.296209,-0.23048 -0.627642,-0.026 -1.183754,-0.0736 -1.235808,-0.10572 -0.246041,-0.15207 -0.441301,-3.03653 -0.32766,-4.84036 0.05043,-0.80043 0.06639,-0.86848 0.220189,-0.93855 0.170506,-0.0777 9.99199,0.0441 10.302068,0.12773 0.126106,0.034 0.193077,0.21338 0.415473,1.11276 0.471096,1.9051 1.390351,7.02032 1.629629,9.06809 0.161364,1.38098 0.219133,4.33921 0.108514,5.55675 -0.112141,1.23428 -0.319979,2.47234 -0.53262,3.17269 l -0.164851,0.54296 -0.803241,-0.0132 c -0.441782,-0.007 -2.199782,-0.0348 -3.906665,-0.0611 z"
           id="path4448"
           inkscape:label="fill_3" />
      </g>
      <g
         id="g1344"
         inkscape:label="letter_4">
        <path
           d="m -39.78812,156.4683 c -0.166943,-0.34797 -0.367269,-0.63795 -0.567596,-0.86993 -0.267107,-0.40597 -0.534213,-0.69595 -0.801313,-1.10192 -0.06678,-0.11599 -0.100164,-0.28998 -0.200333,-0.52196 0.267106,-0.34798 0.500823,-0.63795 0.767929,-0.92793 -0.233716,-0.52196 -0.534213,-0.46397 -0.834703,-0.46397 -4.240282,-0.11599 -8.480563,-0.23198 -12.754235,-0.28998 -0.267106,0 -0.567597,0.058 -0.834703,0.17399 -0.70115,0.34797 -1.402299,0.69595 -2.103449,1.04392 -0.100163,0.058 -0.233717,0.058 -0.30049,0.17399 -0.100164,0.058 -0.233717,0.17399 -0.267107,0.34797 -0.06677,0.23199 0.03341,0.40597 0.133554,0.57996 0.133553,0.17399 0.267106,0.34797 0.367269,0.52196 -0.06678,0.40597 -0.267106,0.63795 -0.400659,0.86994 -0.200327,0.23198 -0.434043,0.46396 -0.60098,0.75394 -0.133554,0.17399 -0.267107,0.40597 -0.36727,0.63795 -0.233717,0.52196 -0.200327,1.10192 0.100163,1.50789 0.233717,0.34798 0.534207,0.57996 0.834703,0.63795 0.367264,0.058 0.70115,0.11599 1.068413,0.11599 2.036676,0.058 4.039956,0.058 6.076631,0.116 2.136833,0.058 4.273666,0.11599 6.443894,0.17398 0.367264,0 0.734534,-0.11599 1.101804,-0.28998 0.801313,-0.40596 1.602626,-0.81193 2.370549,-1.2179 0.200333,-0.116 0.40066,-0.23199 0.600986,-0.40597 0.33388,-0.40597 0.40066,-0.98593 0.166943,-1.56589 z m -0.901476,1.21791 c -0.133553,0.058 -0.300496,0.058 -0.43405,0.058 -4.039955,-0.11599 -8.079904,-0.23199 -12.153249,-0.28998 -0.400659,-0.058 -0.801313,-0.058 -1.235356,-0.11599 -0.33388,0 -0.66776,-0.17399 -0.834703,-0.69595 0.03341,-0.40597 0.233717,-0.63795 0.36727,-0.81194 0.200327,-0.28998 0.400653,-0.46397 0.567596,-0.75394 0.500817,-0.69595 0.567597,-0.86994 0.534207,-1.97186 0,-0.058 0.03341,-0.058 0.03341,-0.058 0.03341,-0.058 0.03341,-0.058 0.06677,-0.058 3.906401,0.11599 7.812803,0.23198 11.685822,0.28998 0.100163,0.058 0.166937,0.058 0.2671,0.058 0.03341,0 0.06678,0.058 0.100169,0.11599 0,0.98592 0.03341,1.2759 0.534207,1.91385 0.233717,0.34798 0.500823,0.63796 0.73454,0.92794 0.166936,0.23198 0.367263,0.40597 0.400653,0.81193 -0.133553,0.46397 -0.400653,0.52197 -0.63437,0.57996 z"
           style="font-size:96px;line-height:125%;font-family:'GOOD PEOPLE';-inkscape-font-specification:'GOOD PEOPLE';font-variant-ligatures:no-common-ligatures;letter-spacing:0px;word-spacing:0px;white-space:pre;fill:#000000;stroke:none;stroke-width:0.458376px"
           id="path4172"
           inkscape:label="shadow_4" />
        <path
           style="font-size:96px;line-height:125%;font-family:'Times New Roman';-inkscape-font-specification:'Times New Roman, ';font-variant-ligatures:no-common-ligatures;letter-spacing:0px;word-spacing:0px;white-space:pre;opacity:0.510086;fill:#fec8d8;fill-opacity:1;fill-rule:evenodd;stroke:none;stroke-width:0.0565774;stroke-linecap:round;stroke-linejoin:round"
           d="m -43.411462,157.65154 c -0.903645,-0.028 -3.417422,-0.0891 -5.586169,-0.13567 -4.280824,-0.092 -5.671143,-0.17266 -5.935909,-0.34456 -0.09195,-0.0597 -0.22126,-0.22195 -0.287356,-0.36055 -0.111778,-0.23441 -0.111622,-0.26993 0.0021,-0.50869 0.06732,-0.14118 0.316174,-0.51086 0.553003,-0.8215 0.660889,-0.86688 0.771088,-1.11916 0.801724,-1.8354 l 0.02625,-0.6134 2.091433,0.0515 c 1.15029,0.0283 3.110087,0.0818 4.355108,0.11877 1.245023,0.037 2.888015,0.07 3.651091,0.0732 0.763077,0.003 1.518854,0.0291 1.679501,0.0575 l 0.292087,0.0516 0.04295,0.61966 c 0.05235,0.75532 0.118401,0.89122 0.952728,1.96018 0.507116,0.64974 0.647316,0.88004 0.647316,1.06331 0,0.45548 -0.460023,0.71003 -1.241369,0.6869 -0.22089,-0.007 -1.140966,-0.0348 -2.04461,-0.0629 z"
           id="path4487"
           inkscape:label="fill_4"
           sodipodi:insensitive="true" />
      </g>
      <g
         id="g1348"
         inkscape:label="letter_5">
        <path
           d="m -1.1442307,168.06744 c -0.2899784,-2.14584 -0.7539439,-4.29168 -1.3339007,-6.37953 -1.7398705,-5.91556 -3.479741,-11.83112 -5.2196115,-17.68868 -0.4059698,-1.21791 -0.8699352,-2.43582 -1.3918964,-3.59573 -0.7539439,-1.56589 -1.9138577,-2.78379 -3.7117237,-3.18976 -0.058,-0.058 -0.115991,-0.116 -0.173987,-0.17399 -0.637953,0 -1.275905,0 -1.913858,0 -0.115991,0.11599 -0.231982,0.23198 -0.405969,0.23198 -1.913858,0.57996 -3.827715,1.10192 -5.741573,1.62388 -1.217909,0.28998 -2.087845,0.98593 -2.667801,2.02985 -0.289979,0.52196 -0.521962,1.04392 -0.753944,1.56588 -0.289979,0.86994 -0.579957,1.79787 -0.753944,2.6678 -1.159914,5.27761 -2.377823,10.55522 -3.421746,15.83283 -0.753943,3.76972 -1.217909,7.53943 -1.159913,11.36715 0.058,1.44989 0.231983,2.84179 0.521961,4.23368 0.058,0.28998 0.173987,0.57996 0.289978,0.92794 2.145841,0.23198 4.17569,0.52196 6.263534,0.75394 0.40597,0.058 0.869935,-0.058 1.275905,-0.11599 1.449892,-0.40597 2.899784,-0.75395 4.349676,-1.21791 2.029849,-0.52196 1.797867,-0.11599 1.797867,-2.31983 0,-0.058 0,-0.11599 0,-0.11599 0.115991,0.92793 0.173987,1.91386 0.289978,2.95778 0.115991,0.63795 0.347974,0.81194 1.043922,0.75394 1.507888,-0.17398 3.073772,-0.28997 4.5816593,-0.46396 0.7539439,-0.058 1.5078878,-0.11599 2.2618316,-0.28998 1.7398705,-0.40597 3.4217454,-0.92793 5.1036202,-1.3919 0.2899784,-0.058 0.5799568,-0.17398 0.8699352,-0.28998 0.057996,-0.28997 0.1159914,-0.46396 0.17398707,-0.69594 0.3479741,-2.31983 0.11599136,-4.69765 -0.17398707,-7.01748 z m -0.4639654,5.21961 c -0.057996,0.57996 -0.1159914,1.15991 -0.2319828,1.79787 -1.9138575,0.17398 -3.8277151,0.28998 -5.7415726,0.46396 -0.3479741,-1.50789 -0.2319828,-2.95778 -0.4639655,-4.40767 -0.2319827,-1.3919 -0.2319827,-2.84179 -0.7539439,-4.23368 -1.9138571,-0.17399 -3.8277151,-0.116 -5.6835771,-0.23199 -0.463965,0 -0.927931,-0.058 -1.391896,0.17399 -0.463966,2.84179 -0.231983,5.79957 -0.289979,8.75735 -0.231982,0 -0.405969,0.058 -0.579956,0 -1.739871,-0.17399 -3.421746,-0.40597 -5.103621,-0.63795 -0.289978,-0.52197 -0.347974,-0.98593 -0.405969,-1.4499 -0.289979,-2.08784 -0.347974,-4.17569 -0.173987,-6.26353 0.347974,-4.69765 1.3339,-9.27931 2.319827,-13.91896 0.695948,-3.07378 1.333901,-6.20554 2.029849,-9.33731 0.289978,-1.10192 0.637952,-2.20384 1.043922,-3.30575 0.173987,-0.52196 0.521961,-1.10192 0.927931,-1.56589 0.81194,-1.15991 2.087845,-1.44989 3.421745,-1.04392 0.985927,0.34797 1.855862,0.92793 2.377823,1.85586 0.4639658,0.86994 0.985927,1.79787 1.2759054,2.7258 0.6379525,1.85586 1.2179093,3.71172 1.7398705,5.56759 1.275905,4.23368 2.5518101,8.40937 3.7697194,12.64305 0.6379525,2.31983 1.2179094,4.69765 1.5658835,7.13347 0.2319827,1.73987 0.4059697,3.53774 0.3479741,5.27761 z m -9.0473269,-17.22472 c -0.579957,-2.78379 -1.217909,-5.56758 -1.855862,-8.40937 -0.115991,-0.57996 -0.231982,-1.21791 -0.637952,-1.73987 -0.115991,0.17399 -0.231983,0.34797 -0.289979,0.52196 -0.115991,0.46396 -0.231982,0.98593 -0.347974,1.50789 -0.231982,1.56588 -0.463965,3.13176 -0.695948,4.75564 -0.289978,2.20384 -0.521961,4.46567 -0.811939,6.66951 0,0.28997 0.058,0.52196 0.115991,0.75394 0.869935,0.23198 3.769719,0.40597 4.639655,0.28998 0.231982,-0.058 0.405969,-0.17399 0.6379522,-0.23198 0,-0.28998 -0.057996,-0.52197 -0.057996,-0.69595 -0.2319822,-1.15992 -0.4059692,-2.26183 -0.6959482,-3.42175 z"
           style="font-size:96px;line-height:125%;font-family:'GOOD PEOPLE';-inkscape-font-specification:'GOOD PEOPLE';font-variant-ligatures:no-common-ligatures;letter-spacing:0px;word-spacing:0px;white-space:pre;fill:#000000;stroke:none;stroke-width:0.604122px"
           id="path4174"
           inkscape:label="shadow_5"
           sodipodi:insensitive="true" />
        <path
           style="font-size:96px;line-height:125%;font-family:'Times New Roman';-inkscape-font-specification:'Times New Roman, ';font-variant-ligatures:no-common-ligatures;letter-spacing:0px;word-spacing:0px;white-space:pre;opacity:0.510086;fill:#fffef2;fill-opacity:1;fill-rule:evenodd;stroke:none;stroke-width:0.113155;stroke-linecap:round;stroke-linejoin:round"
           d="m -19.204735,175.24708 c -1.084374,-0.14781 -2.113029,-0.27282 -2.2859,-0.27779 -0.412929,-0.0119 -0.572255,-0.49019 -0.792483,-2.37911 -0.311538,-2.67209 -0.056,-6.95814 0.671508,-11.26312 0.745133,-4.40924 3.416408,-16.73294 4.104235,-18.93454 0.622616,-1.99286 0.908686,-2.58692 1.631458,-3.38791 1.015475,-1.12536 2.277063,-1.30688 3.798624,-0.54655 2.011484,1.00515 2.3253221,1.74792 6.1670102,14.59565 2.5415372,8.49964 3.1947521,10.96981 3.7177315,14.05886 0.411345,2.42967 0.6104506,5.84628 0.4147756,7.11746 l -0.1236449,0.80324 -2.7495821,0.20715 c -2.3143866,0.17436 -2.7689796,0.17576 -2.8721272,0.009 -0.067399,-0.10905 -0.1626605,-0.76089 -0.2116918,-1.44852 -0.1401651,-1.96575 -0.6432796,-5.76819 -0.8448704,-6.38538 l -0.1830935,-0.56055 -1.5333734,-0.0916 c -2.242387,-0.13401 -5.303441,-0.14016 -5.506553,-0.0111 -0.242392,0.15406 -0.481151,3.29553 -0.481151,6.33076 v 2.46153 l -0.474641,-0.0143 c -0.261053,-0.008 -1.361857,-0.13524 -2.446231,-0.28305 z m 8.990543,-14.89456 c 0.3771745,-0.1434 0.3890271,-0.18012 0.2946216,-0.91277 -0.09895,-0.76792 -2.0487026,-9.84305 -2.5769426,-11.99439 -0.768592,-3.13022 -1.169077,-1.78131 -2.393735,8.06254 -0.26802,2.15435 -0.454114,4.09065 -0.413542,4.30289 0.07664,0.40092 0.06731,0.3977 1.721734,0.5951 0.989047,0.11801 3.000952,0.0861 3.367864,-0.0534 z"
           id="path4526"
           inkscape:label="fill_5"
           sodipodi:insensitive="true" />
      </g>
      <g
         id="g1352"
         inkscape:label="letter_6"
         sodipodi:insensitive="true">
        <path
           d="m 33.305133,168.82138 c 0.058,-3.24776 -0.579957,-6.43752 -1.21791,-9.56928 -0.637952,-3.36375 -1.449892,-6.66951 -1.797866,-10.09125 -0.289978,-2.95778 -0.347974,-5.85757 0.289979,-8.75735 0.115991,-0.40597 0.173987,-0.81194 0.231982,-1.3339 -0.463965,-0.058 -0.811939,-0.11599 -1.101918,-0.17399 -1.3339,-0.058 -2.667801,-0.058 -4.001702,-0.17399 -0.985926,-0.058 -1.971853,0.058 -2.899784,0.34798 -0.579957,0.17398 -1.217909,0.28998 -1.797866,0.46396 -0.173987,-0.17398 -0.289979,-0.28998 -0.40597,-0.46396 -0.579957,-0.75395 -1.391896,-1.10192 -2.261832,-1.21791 -3.189762,-0.34798 -6.379525,-0.57996 -9.453296,0.52196 -1.3339007,0.46396 -2.6678014,0.75394 -4.0017021,1.10192 -0.9859266,0.28998 -1.6238792,0.92793 -1.7398705,1.91385 -0.1159914,0.46397 -0.057996,0.92794 -0.057996,1.33391 0.1159914,1.04392 0.3479741,2.02984 0.4059698,3.01577 0.1159913,2.78379 0,5.50959 -0.3479741,8.23539 -0.3479741,2.6098 -0.6959482,5.21961 -1.0439223,7.77142 -0.3479741,2.49381 -0.5799569,4.98763 -0.4639655,7.42345 0.1159914,2.20383 0.4639655,4.34967 1.101918,6.43752 0.1159914,0.34797 0.2899784,0.69595 0.4639655,1.04392 2.2618316,0.23198 4.5236633,0.34797 6.7274992,0.28998 0.347974,0 0.695949,-0.11599 1.043923,-0.17399 1.043922,-0.28998 2.14584,-0.57996 3.247758,-0.86993 0.289978,0.34797 0.463965,0.57995 0.695948,0.75394 0.695948,0.69595 1.507888,1.04392 2.377823,1.10192 1.449892,0.11599 2.841789,0.17399 4.291681,0.23198 0.579956,0 1.217909,-0.058 1.797866,-0.23198 2.261831,-0.57996 4.465667,-1.15992 6.669503,-1.79787 1.333901,-0.34797 2.203836,-1.21791 2.667802,-2.37782 0.289978,-0.75395 0.463965,-1.56588 0.521961,-2.31983 0.115991,-0.81194 0.058,-1.62388 0.058,-2.43582 z m -0.869936,2.26183 c 0,0.75395 -0.173987,1.50789 -0.521961,2.20384 -0.521961,1.04392 -1.3339,1.73987 -2.55181,1.91386 -0.521961,0.058 -1.043922,0.11599 -1.565883,0.11599 -1.21791,-0.058 -2.493815,-0.11599 -3.711724,-0.17399 -1.623879,-0.11599 -2.609806,-0.92793 -3.015776,-2.49381 -1.275905,-4.75565 -2.261831,-9.56929 -2.957779,-14.44093 -0.463966,-3.24776 -0.869936,-6.43752 -1.275905,-9.62728 -0.115992,-0.46397 -0.115992,-0.92793 -0.695949,-0.98593 -0.405969,0.34798 -0.347974,0.81194 -0.347974,1.21791 -0.058,2.26183 -0.058,4.52367 -0.115991,6.7855 -0.115991,3.30575 -0.173987,6.6695 -0.231983,9.97525 -0.058,2.7258 0.115992,5.50959 0.521961,8.23539 0,0.11599 -0.058,0.23198 -0.058,0.34798 -1.101918,0.23198 -3.653728,0.17398 -5.741573,-0.17399 -0.173987,-0.46397 -0.3479741,-0.92793 -0.4639654,-1.44989 -0.6379525,-2.49382 -0.8699353,-5.04563 -0.7539439,-7.65543 0.1159914,-3.07377 0.5799568,-6.14755 1.0439223,-9.22132 0.40597,-2.84179 0.753944,-5.74157 0.81194,-8.64135 0.058,-1.79787 -0.058,-3.59574 -0.347975,-5.3936 -0.058,-0.52196 -0.115991,-1.10192 -0.058,-1.62388 0.058,-0.75395 0.463965,-1.21791 1.217909,-1.3919 0.521961,-0.11599 1.043922,-0.17399 1.565884,-0.11599 1.3339,0 2.667801,0.058 4.001702,0.17399 0.521961,0 1.101918,0.11599 1.681875,0.23198 0.695948,0.17399 1.217909,0.57996 1.391896,1.27591 0.231983,0.69594 0.40597,1.39189 0.521961,2.08784 0.637953,3.82772 1.275905,7.65543 2.14584,11.48315 0.521961,2.02984 0.985927,4.0017 1.507888,6.03155 0.058,0.28997 0.173987,0.63795 0.289979,0.92793 0.115991,0.34797 0.405969,0.34797 0.811939,0.17398 0,-0.23198 0,-0.46396 0,-0.75394 -0.289978,-2.89978 -0.637952,-5.79957 -0.869935,-8.69935 -0.289979,-3.30576 -0.521961,-6.66951 -0.347974,-9.97526 0.05799,-0.52196 0.115991,-1.04392 0.173987,-1.62388 0.869935,-0.28998 1.797866,-0.11599 2.667801,-0.11599 0.81194,0 1.739871,-0.058 2.609806,0.23198 0,0.28998 -0.058,0.46397 -0.058,0.63796 -0.579957,2.89978 -0.521961,5.85756 -0.231982,8.87333 0.405969,3.30576 1.159913,6.61151 1.855861,9.91727 0.463966,2.37782 0.927931,4.75564 1.101918,7.19146 0.115992,1.50789 0.058,3.01578 0,4.52366 z"
           style="font-size:96px;line-height:125%;font-family:'GOOD PEOPLE';-inkscape-font-specification:'GOOD PEOPLE';font-variant-ligatures:no-common-ligatures;letter-spacing:0px;word-spacing:0px;white-space:pre;fill:#000000;stroke:none;stroke-width:0.604122px"
           id="path4176"
           inkscape:label="shadow_6" />
        <path
           style="font-size:96px;line-height:125%;font-family:'Times New Roman';-inkscape-font-specification:'Times New Roman, ';font-variant-ligatures:no-common-ligatures;letter-spacing:0px;word-spacing:0px;white-space:pre;opacity:0.510086;fill:#fff1d1;fill-opacity:1;fill-rule:evenodd;stroke:none;stroke-width:0.113155;stroke-linecap:round;stroke-linejoin:round"
           d="m 24.900436,175.11415 c -1.702124,-0.12366 -2.213334,-0.27876 -2.824378,-0.8569 -0.618078,-0.58479 -0.775025,-0.97144 -1.417412,-3.49182 -1.299614,-5.099 -2.342588,-11.06935 -3.425764,-19.61029 -0.371547,-2.92968 -0.570654,-3.65109 -1.00769,-3.65109 -0.108889,0 -0.266142,0.18073 -0.34945,0.40162 -0.192883,0.51143 -0.543503,17.34026 -0.429787,20.62866 0.04583,1.32534 0.166491,3.08234 0.268132,3.90443 0.101642,0.82209 0.134391,1.545 0.07278,1.60648 -0.147946,0.14761 -3.732999,0.14354 -4.772766,-0.005 l -0.815435,-0.11682 -0.2321532,-0.75925 c -1.2474927,-4.07994 -1.274513,-8.05024 -0.1097391,-16.12485 1.0193953,-7.0668 1.2124463,-10.47387 0.8067993,-14.23882 -0.289825,-2.68997 -0.243371,-3.2662 0.304714,-3.77971 0.373281,-0.34973 0.395155,-0.35189 3.4663,-0.34173 4.535067,0.015 5.382047,0.28349 5.85761,1.8568 0.126643,0.41897 0.523393,2.44118 0.881668,4.49381 0.358275,2.05262 0.856317,4.74713 1.106761,5.98778 0.681941,3.37823 2.280582,9.64639 2.521733,9.88755 0.268528,0.26852 0.828298,0.10839 0.828298,-0.23696 0,-0.13901 -0.160587,-1.794 -0.35686,-3.67776 -0.724501,-6.95348 -0.868489,-9.07775 -0.876545,-12.9318 -0.0065,-3.1282 0.03009,-3.85698 0.204415,-4.06711 0.189826,-0.2288 0.463859,-0.25059 2.580185,-0.20509 1.302293,0.028 2.406023,0.0892 2.452735,0.13592 0.04671,0.0468 -0.02098,0.76967 -0.150428,1.60648 -0.312598,2.02075 -0.310656,6.05936 0.004,8.45853 0.131709,1.00406 0.726908,4.25718 1.322662,7.22916 1.439511,7.18116 1.583778,8.26177 1.569972,11.75956 -0.01008,2.55284 -0.04445,2.93963 -0.328782,3.69957 -0.378018,1.01035 -0.99499,1.75496 -1.790322,2.16071 -0.683294,0.34859 -2.847816,0.46097 -5.361313,0.27836 z"
           id="path4565"
           inkscape:label="fill_6"
           sodipodi:insensitive="true" />
      </g>
      <g
         id="g1356"
         inkscape:label="letter_7">
        <path
           d="m 50.993689,167.66147 c -0.058,-1.62388 -0.173987,-3.24776 -0.347974,-4.92963 -0.173987,-2.26184 -0.405964,-4.58166 -0.637946,-6.84349 -0.231983,-2.55181 -0.521962,-5.04563 -0.637959,-7.53944 -0.173987,-3.18977 -0.347974,-6.32153 -0.231983,-9.4533 0,-0.34797 -0.05799,-0.69595 -0.115991,-1.10192 -0.405964,-0.058 -0.753938,-0.11599 -1.101912,-0.17398 -1.739871,0 -3.537737,0 -5.277607,0 -0.347974,0 -0.75395,0.058 -1.043929,0.11599 -1.913857,0.52196 -3.769713,0.98592 -5.68357,1.50788 -0.231983,0.058 -0.40597,0.23199 -0.637953,0.34798 0.695948,4.23368 0.869929,8.46737 0.927925,12.70105 0.058,4.81364 0.058,9.62729 0.058,14.44093 0.05799,3.36375 0.347974,6.6695 0.811945,9.97526 0,0.34797 0.115992,0.63795 0.231983,1.04392 1.333901,0.058 2.551804,0.058 3.769719,0.11599 2.95778,0.058 2.95778,0.058 5.741573,-0.69595 1.391896,-0.34797 2.725797,-0.75394 4.175683,-1.15991 0.058,-0.46397 0.115992,-0.86994 0.115992,-1.3339 0,-2.31983 0,-4.69765 -0.115992,-7.01748 z m -0.695942,6.7275 c 0,0.23198 -0.058,0.52196 -0.115991,0.75394 -0.985933,0.17399 -4.813648,0.058 -5.799569,-0.11599 -0.115991,-0.81194 -0.289978,-1.62388 -0.347974,-2.49381 -0.34798,-3.88571 -0.521967,-7.77142 -0.579963,-11.65714 0,-4.46566 0.058,-8.98933 0,-13.45499 -0.058,-2.7258 -0.289972,-5.50959 -0.695942,-8.23539 0,-0.17399 0,-0.34798 0,-0.52196 0.173987,-0.058 0.347974,-0.17399 0.521955,-0.17399 1.623885,0.058 3.247765,0.11599 4.929639,0.17399 0.058,0.28998 0.115992,0.57995 0.115992,0.81194 -0.115992,3.13176 0.058,6.32153 0.231983,9.45329 0.173987,2.37783 0.405963,4.75565 0.637946,7.13347 0.521967,5.4516 1.15992,10.8452 1.15992,16.35479 0,0.63795 0,1.3339 -0.058,1.97185 z"
           style="font-size:96px;line-height:125%;font-family:'GOOD PEOPLE';-inkscape-font-specification:'GOOD PEOPLE';font-variant-ligatures:no-common-ligatures;letter-spacing:0px;word-spacing:0px;white-space:pre;fill:#000000;stroke:none;stroke-width:0.604122px"
           id="path4178"
           inkscape:label="shadow_7" />
        <path
           style="font-size:96px;line-height:125%;font-family:'Times New Roman';-inkscape-font-specification:'Times New Roman, ';font-variant-ligatures:no-common-ligatures;letter-spacing:0px;word-spacing:0px;white-space:pre;opacity:0.510086;fill:#ffdeca;fill-opacity:1;fill-rule:evenodd;stroke:none;stroke-width:0.113155;stroke-linecap:round;stroke-linejoin:round"
           d="m 44.805782,175.00413 c -0.466474,-0.0905 -0.533196,-0.42284 -0.863232,-4.3003 -0.163772,-1.92411 -0.263732,-5.97802 -0.354185,-14.36414 -0.09551,-8.85551 -0.180713,-12.17839 -0.351991,-13.7281 -0.124288,-1.12454 -0.268494,-2.48822 -0.320458,-3.03041 l -0.09448,-0.98579 1.664174,0.0181 c 0.915294,0.01 2.124207,0.0593 2.686476,0.10953 l 1.022305,0.0914 0.09082,4.45434 c 0.09613,4.71469 0.114916,4.98386 1.009295,14.45831 0.901753,9.55259 1.177854,14.3012 0.953387,16.39722 l -0.105159,0.98197 -2.507628,-0.0199 c -1.379196,-0.0109 -2.65239,-0.048 -2.829322,-0.0823 z"
           id="path4604"
           inkscape:label="fill_7" />
      </g>
      <g
         id="g1360"
         inkscape:label="letter_8">
        <path
           d="m 92.692531,169.05337 c -0.289978,-2.26184 -0.927931,-4.46567 -1.623879,-6.61151 -0.927931,-2.84179 -1.913858,-5.68358 -2.841789,-8.58336 -1.275905,-3.82772 -1.971853,-7.77142 -1.797866,-11.88912 0,-0.11599 0,-0.28998 0,-0.40597 -0.115991,-1.39189 -0.985926,-2.37782 -2.377823,-2.6098 -0.40597,-0.116 -0.869935,-0.116 -1.333901,-0.116 -1.043922,-0.058 -2.087844,-0.11599 -3.189762,-0.17398 -0.985927,-0.058 -2.029849,0.058 -3.015776,0.34797 -1.043922,0.34798 -2.14584,0.57996 -3.131767,0.86994 -0.173987,-0.058 -0.289978,-0.11599 -0.405969,-0.23199 -0.927931,-0.75394 -1.971854,-0.98592 -3.073771,-0.98592 -0.579957,0 -1.101918,0 -1.62388,0 -2.203836,-0.17399 -4.29168,0.11599 -6.43752,0.81194 -1.21791,0.40597 -2.551811,0.69595 -3.827716,1.04392 -1.217909,0.34797 -1.681874,0.92793 -1.681874,2.20384 -0.058,0.69594 0,1.3339 0.115991,2.02984 0.289978,2.02985 0.289978,4.1177 0.058,6.20554 -0.289979,2.02985 -0.695949,4.0017 -1.101918,6.03155 -0.579957,2.7838 -1.275905,5.50959 -1.855862,8.29339 -0.463966,2.20383 -0.521961,4.40767 -0.40597,6.6115 0.115991,1.68188 0.579957,3.30576 1.159914,4.92964 0.173987,0.57995 0.579957,0.86993 1.159913,0.92793 1.797867,0.11599 3.595733,0.34797 5.393599,0.46396 0.463965,0.058 0.927931,-0.058 1.333901,-0.17398 1.797866,-0.46397 3.595732,-0.92793 5.393598,-1.3919 0.173987,-0.058 0.40597,-0.23198 0.579957,-0.28998 -0.058,-1.15991 -0.579957,-2.20383 -0.463965,-3.36375 0.289978,0 0.521961,0 0.695948,0 1.275905,0.17399 2.493814,0 3.711723,-0.34797 1.739871,-0.46397 3.479741,-0.92793 5.219612,-1.44989 0.347974,-0.058 0.695948,-0.058 0.985927,-0.116 0.058,0.23199 0.115991,0.34798 0.115991,0.46397 0.347974,2.08784 0.347974,4.17569 0.173987,6.26353 -0.058,0.34798 -0.115991,0.69595 0.231983,0.98593 4.523663,-0.11599 8.931335,-1.04392 13.397003,-2.55181 0.115991,-0.28998 0.231982,-0.63795 0.289978,-0.98593 0.463965,-2.08784 0.40597,-4.11769 0.173987,-6.20553 z m -0.927931,5.91556 c -0.058,0.17398 -0.115991,0.34797 -0.231983,0.57995 -1.797866,0.17399 -3.653728,0.52196 -5.567585,0.40597 0,-0.23198 -0.058,-0.40597 -0.058,-0.57995 0.289978,-3.47975 -0.231983,-6.90149 -0.985927,-10.32324 -0.811939,-3.71172 -1.73987,-7.48144 -2.609805,-11.25116 -0.463966,-2.14584 -0.81194,-4.34968 -1.21791,-6.49552 0,-0.23198 -0.058,-0.46396 -0.115991,-0.63795 -0.347974,-0.17399 -0.637953,-0.11599 -0.695948,0.17399 -0.115992,0.40597 -0.173987,0.81194 -0.173987,1.21791 0,1.79786 0.058,3.59573 0.058,5.45159 0,3.13177 0.115992,6.26354 0.115992,9.4533 0,1.50789 -0.231983,3.07377 -0.289979,4.63965 -0.058,1.27591 -0.695948,2.08785 -1.855861,2.43582 -1.797867,0.57996 -3.595733,0.57996 -5.335603,-0.28998 -0.869936,-0.40597 -1.391897,-1.10191 -1.623879,-2.08784 -0.347975,-1.91386 -0.637953,-3.82772 -0.753944,-5.79957 -0.231983,-3.47974 -0.347974,-7.01748 -0.579957,-10.49722 -0.058,-1.15991 -0.115992,-2.31983 -0.231983,-3.47974 -0.058,-0.34797 -0.058,-0.69595 -0.40597,-0.92793 -0.347974,0.058 -0.521961,0.28998 -0.579957,0.63795 0,0.28998 0,0.57996 -0.058,0.92793 -0.173987,2.26184 -0.347974,4.52367 -0.637953,6.7275 -0.463965,3.71173 -1.101918,7.36545 -1.3339,11.07718 -0.231983,2.55181 -0.115992,5.04562 0.289978,7.59743 0.115991,0.46397 0.173987,0.92793 0.231983,1.56589 -1.913858,0 -3.653728,-0.28998 -5.393599,-0.46397 -0.695948,-1.21791 -0.927931,-2.55181 -1.159913,-3.94371 -0.463966,-2.78379 -0.115992,-5.56758 0.463965,-8.29338 0.521961,-2.7258 1.217909,-5.3936 1.797866,-8.0614 0.463966,-1.97185 0.81194,-4.0017 1.043922,-6.03155 0.173988,-2.14584 0.058,-4.23368 -0.231982,-6.37952 -0.058,-0.46397 -0.115992,-0.92794 -0.058,-1.4499 0.115991,-0.75394 0.463966,-1.04392 1.217909,-1.21791 0.289979,-0.058 0.579957,-0.11599 0.927931,-0.11599 1.449892,0 2.899784,0 4.349677,0 0.347974,0.058 0.637952,0.058 0.92793,0.17399 1.275906,0.23198 2.087845,0.92793 2.377823,2.20384 0.289979,1.44989 0.521962,2.95778 0.81194,4.46566 0.058,0.52196 0.115991,1.10192 0.231983,1.68188 0.058,0.46396 0.231983,0.92793 0.637952,1.39189 0.289979,-0.81193 0.347974,-1.50788 0.40597,-2.26183 0,-1.10191 0.058,-2.20383 0.115991,-3.30575 0,-0.69595 0.058,-1.3919 0.173988,-2.08785 0.231982,-1.39189 0.92793,-2.02984 2.319827,-2.14584 0.289978,0 0.637952,-0.058 0.927931,0 1.3339,0 2.667801,0 4.001702,0.058 0.347974,0 0.695948,0 1.043922,0.11599 1.101918,0.28998 1.507888,0.86994 1.565884,2.02985 0,0.11599 0,0.23198 0,0.34797 -0.173987,3.71173 0.405969,7.24946 1.507887,10.7872 0.869936,2.95778 1.913858,5.85757 2.899785,8.81535 0.811939,2.43581 1.507887,4.92963 1.855861,7.48144 0.231983,1.91386 0.289979,3.82771 -0.115991,5.68358 z"
           style="font-size:96px;line-height:125%;font-family:'GOOD PEOPLE';-inkscape-font-specification:'GOOD PEOPLE';font-variant-ligatures:no-common-ligatures;letter-spacing:0px;word-spacing:0px;white-space:pre;fill:#000000;stroke:none;stroke-width:0.604122px"
           id="path4180"
           inkscape:label="shadow_8" />
        <path
           style="font-size:96px;line-height:125%;font-family:'Times New Roman';-inkscape-font-specification:'Times New Roman, ';font-variant-ligatures:no-common-ligatures;letter-spacing:0px;word-spacing:0px;white-space:pre;opacity:0.510086;fill:#aed7eb;fill-opacity:1;fill-rule:evenodd;stroke:none;stroke-width:0.113155;stroke-linecap:round;stroke-linejoin:round"
           d="m 86.000703,173.24424 c -0.02768,-3.77923 -0.263372,-5.12707 -2.762687,-15.79857 -0.593958,-2.53607 -1.328295,-6.0081 -1.631868,-7.71564 -0.463433,-2.60674 -0.595286,-3.11845 -0.822222,-3.19095 -0.148653,-0.0475 -0.345813,-0.0106 -0.438131,0.082 -0.122582,0.12296 -0.171379,2.63789 -0.180933,9.32478 -0.01669,11.6793 -0.116771,12.81927 -1.192802,13.58547 -0.44726,0.31848 -1.641163,0.685 -2.664272,0.81792 -1.596441,0.20741 -3.923612,-0.62006 -4.594336,-1.63358 -0.681975,-1.03054 -1.10552,-4.26252 -1.468742,-11.20766 -0.497856,-9.51939 -0.539499,-10.0379 -0.835718,-10.40561 -0.209709,-0.26032 -0.516128,-0.22558 -0.677993,0.0769 -0.07636,0.14268 -0.246866,1.57208 -0.378901,3.17645 -0.132033,1.60436 -0.530202,5.09841 -0.884817,7.76456 -1.165413,8.76202 -1.278777,11.26261 -0.69891,15.41684 0.131804,0.94427 0.194968,1.76152 0.140366,1.81612 -0.09586,0.0959 -3.551145,-0.15569 -4.647152,-0.33832 -0.476112,-0.0793 -0.572831,-0.17241 -0.850942,-0.81891 -0.390697,-0.9082 -0.828339,-3.12763 -0.958152,-4.85913 -0.174937,-2.33341 0.247264,-5.08476 1.837579,-11.97492 1.792473,-7.76601 2.004886,-9.97079 1.435714,-14.90219 -0.19908,-1.72487 -0.06769,-2.17637 0.752636,-2.5863 0.730666,-0.36513 5.722446,-0.37605 6.801356,-0.0149 0.972129,0.32542 1.439262,0.67512 1.735351,1.29908 0.247666,0.52192 0.76974,3.09023 1.180323,5.80654 0.217648,1.43991 0.491429,2.32195 0.775144,2.4973 0.289097,0.17867 0.469138,-1.00234 0.610116,-4.00211 0.16202,-3.44746 0.313031,-4.36 0.821518,-4.96431 0.56951,-0.67682 1.104789,-0.75939 4.578953,-0.70632 4.555958,0.0696 4.446056,-0.0281 4.571,4.06415 0.13865,4.54112 0.623012,6.67933 3.390982,14.96947 2.599193,7.78464 3.083758,10.03734 2.952977,13.7281 -0.03985,1.12454 -0.148907,2.24779 -0.242355,2.49612 -0.169032,0.44918 -0.177967,0.45238 -1.733653,0.62089 -0.86006,0.0932 -2.089505,0.1693 -2.732096,0.16918 l -1.168349,-1.4e-4 -0.019,-2.59228 z"
           id="path4643"
           inkscape:label="fill_8"
           sodipodi:insensitive="true" />
      </g>
      <g
         id="g1364"
         inkscape:label="letter_9">
        <path
           d="m 122.79224,168.06744 c -0.28998,-2.14584 -0.75394,-4.29168 -1.3339,-6.37953 -1.73987,-5.91556 -3.47974,-11.83112 -5.21961,-17.68868 -0.40597,-1.21791 -0.86994,-2.43582 -1.3919,-3.59573 -0.75394,-1.56589 -1.91385,-2.78379 -3.71172,-3.18976 -0.058,-0.058 -0.11599,-0.116 -0.17399,-0.17399 -0.63795,0 -1.2759,0 -1.91385,0 -0.116,0.11599 -0.23199,0.23198 -0.40597,0.23198 -1.91386,0.57996 -3.82772,1.10192 -5.74158,1.62388 -1.21791,0.28998 -2.02985,0.98593 -2.6678,2.02985 -0.289977,0.52196 -0.52196,1.04392 -0.695947,1.56588 -0.347974,0.86994 -0.637952,1.79787 -0.811939,2.6678 -1.159914,5.27761 -2.319828,10.55522 -3.421746,15.83283 -0.753943,3.76972 -1.217909,7.53943 -1.159913,11.36715 0.058,1.44989 0.231982,2.84179 0.521961,4.23368 0.058,0.28998 0.173987,0.57996 0.289978,0.92794 2.145841,0.23198 4.17569,0.52196 6.263536,0.75394 0.40597,0.058 0.86993,-0.058 1.2759,-0.11599 1.4499,-0.40597 2.89979,-0.75395 4.34968,-1.21791 2.02985,-0.52196 1.79787,-0.11599 1.79787,-2.31983 0,-0.058 0.058,-0.11599 0,-0.11599 0.11599,0.92793 0.17398,1.91386 0.28997,2.95778 0.116,0.63795 0.34798,0.81194 1.04393,0.75394 1.50788,-0.17398 3.07377,-0.28997 4.63965,-0.46396 0.69595,-0.058 1.44989,-0.11599 2.20384,-0.28998 1.73987,-0.40597 3.42174,-0.92793 5.10362,-1.3919 0.28998,-0.058 0.57995,-0.17398 0.92793,-0.28998 0,-0.28997 0.058,-0.46396 0.11599,-0.69594 0.34797,-2.31983 0.11599,-4.69765 -0.17399,-7.01748 z m -0.46396,5.21961 c -0.058,0.57996 -0.11599,1.15991 -0.23199,1.79787 -1.91385,0.17398 -3.82771,0.28998 -5.74157,0.46396 -0.34797,-1.50789 -0.23198,-2.95778 -0.46396,-4.40767 -0.23199,-1.3919 -0.23199,-2.84179 -0.75395,-4.23368 -1.91386,-0.17399 -3.76972,-0.116 -5.68357,-0.23199 -0.46397,0 -0.86994,-0.058 -1.3919,0.17399 -0.46397,2.84179 -0.23198,5.79957 -0.28998,8.75735 -0.23198,0 -0.40597,0.058 -0.57996,0 -1.68187,-0.17399 -3.42174,-0.40597 -5.10362,-0.63795 -0.28998,-0.52197 -0.34797,-0.98593 -0.40597,-1.4499 -0.28997,-2.08784 -0.34797,-4.17569 -0.17398,-6.26353 0.34797,-4.69765 1.3339,-9.27931 2.31982,-13.91896 0.69595,-3.07378 1.3339,-6.20554 2.02985,-9.33731 0.28998,-1.10192 0.63796,-2.20384 1.04393,-3.30575 0.23198,-0.52196 0.52196,-1.10192 0.92793,-1.56589 0.86993,-1.15991 2.08784,-1.44989 3.42174,-1.04392 0.98593,0.34797 1.85586,0.92793 2.37782,1.85586 0.46397,0.86994 0.98593,1.79787 1.27591,2.7258 0.63795,1.85586 1.21791,3.71172 1.73987,5.56759 1.2759,4.23368 2.55181,8.40937 3.76972,12.64305 0.63795,2.31983 1.21791,4.69765 1.56588,7.13347 0.28998,1.73987 0.40597,3.53774 0.34798,5.27761 z m -8.98933,-17.22472 c -0.63796,-2.78379 -1.21791,-5.56758 -1.85587,-8.40937 -0.17398,-0.57996 -0.28997,-1.21791 -0.69594,-1.73987 -0.116,0.17399 -0.23199,0.34797 -0.28998,0.52196 -0.11599,0.46396 -0.23199,0.98593 -0.34798,1.50789 -0.23198,1.56588 -0.46396,3.13176 -0.69594,4.75564 -0.28998,2.20384 -0.52197,4.46567 -0.81194,6.66951 0,0.28997 0.058,0.52196 0.11599,0.75394 0.86993,0.23198 3.76972,0.40597 4.63965,0.28998 0.23198,-0.058 0.40597,-0.17399 0.63795,-0.23198 0,-0.28998 -0.058,-0.52197 -0.058,-0.69595 -0.23198,-1.15992 -0.40597,-2.26183 -0.63795,-3.42175 z"
           style="font-size:96px;line-height:125%;font-family:'GOOD PEOPLE';-inkscape-font-specification:'GOOD PEOPLE';font-variant-ligatures:no-common-ligatures;letter-spacing:0px;word-spacing:0px;white-space:pre;fill:#000000;stroke:none;stroke-width:0.604122px"
           id="path4182"
           inkscape:label="shadow_9"
           sodipodi:insensitive="true" />
        <path
           style="font-size:96px;line-height:125%;font-family:'Times New Roman';-inkscape-font-specification:'Times New Roman, ';font-variant-ligatures:no-common-ligatures;letter-spacing:0px;word-spacing:0px;white-space:pre;opacity:0.510086;fill:#b8ebe9;fill-opacity:1;fill-rule:evenodd;stroke:none;stroke-width:0.113155;stroke-linecap:round;stroke-linejoin:round"
           d="m 104.4942,175.23314 c -1.16469,-0.15259 -2.19057,-0.30367 -2.27971,-0.33574 -0.51127,-0.18395 -0.8761,-4.34617 -0.64502,-7.35887 0.33491,-4.36651 0.83392,-7.23443 3.01544,-17.33049 1.98797,-9.20033 2.68232,-11.09083 4.37427,-11.90989 1.28414,-0.62165 3.0284,-0.15646 4.13373,1.10244 1.11092,1.26527 1.67037,2.76211 4.25686,11.38944 3.35319,11.18464 3.89728,13.2335 4.53765,17.0871 0.36709,2.2091 0.47158,6.35402 0.1734,6.87872 -0.16057,0.28255 -0.38832,0.32172 -2.88545,0.49622 -1.49112,0.1042 -2.74163,0.15895 -2.77893,0.12165 -0.0373,-0.0373 -0.13688,-0.88492 -0.22131,-1.88363 -0.21175,-2.50497 -0.57723,-5.31435 -0.78501,-6.03427 l -0.17345,-0.60099 -1.52759,-0.0916 c -2.27615,-0.13654 -5.29908,-0.13923 -5.51073,-0.005 -0.29361,0.18633 -0.46887,2.30503 -0.47008,5.6827 l -0.001,3.10343 -0.54766,-0.0169 c -0.30122,-0.009 -1.5006,-0.14177 -2.6653,-0.29436 z m 9.49725,-14.96892 c 0.20981,-0.21028 -0.22409,-2.59658 -1.58992,-8.74397 -0.98087,-4.41477 -1.32509,-5.62268 -1.60228,-5.62268 -0.42335,0 -0.85365,2.37692 -1.7819,9.84296 -0.47189,3.79544 -0.48756,4.01261 -0.3097,4.29298 0.25991,0.40969 4.90295,0.61242 5.2838,0.23071 z"
           id="path4682"
           inkscape:label="fill_9"
           sodipodi:insensitive="true" />
      </g>
      <g
         id="g1368"
         inkscape:label="letter_10">
        <path
           d="m 148.07826,138.37365 c -0.23199,-0.058 -0.40597,-0.11599 -0.57996,-0.11599 -2.37782,-0.058 -4.75565,-0.17399 -7.19146,-0.23198 -1.21791,-0.058 -2.43582,-0.058 -3.71173,-0.116 -2.20383,-0.058 -4.40767,-0.11599 -6.61151,-0.17398 -0.46396,0 -0.92793,0.058 -1.3339,0.11599 -1.85586,0.52196 -3.65372,0.98592 -5.50959,1.50789 -0.23198,0.058 -0.46396,0.23198 -0.69594,0.34797 0,0.23198 0,0.40597 0.058,0.57996 0.57996,1.97185 0.92793,4.05969 1.15991,6.08954 0,0.23199 0.17399,0.40597 0.23199,0.63796 1.73987,0.17398 3.47974,0.17398 5.21961,0.34797 0.058,0.52196 0.11599,0.92793 0.11599,1.3919 0,1.62388 0.058,3.24775 0,4.92963 0,4.63965 0,9.27931 0,13.91896 -0.058,3.01578 0.17399,5.97356 0.52196,8.93134 0.058,0.34797 0.17399,0.63795 0.28998,0.98593 0.40597,0.058 0.75394,0.11599 1.10192,0.11599 0.86993,0.058 1.73987,0.058 2.6678,0.11599 1.62388,0.17399 3.13177,0 4.69765,-0.52196 0.81194,-0.28998 1.62388,-0.46397 2.43582,-0.63796 0.69595,-0.23198 1.3339,-0.40597 2.02985,-0.63795 0.058,-0.28998 0.17398,-0.52196 0.17398,-0.81194 0.058,-0.81194 0.116,-1.56588 0.116,-2.37782 0.11599,-4.40767 -0.23199,-8.75735 -0.52197,-13.16502 -0.28997,-3.88571 -0.57995,-7.77142 -0.86993,-11.65713 0,-0.23199 0.058,-0.40597 0.058,-0.69595 1.79786,-0.63795 3.71172,-0.92793 5.50958,-1.62388 0.058,-0.52196 0.058,-0.98593 0.116,-1.50789 0.11599,-1.10192 0.23198,-2.26183 0.34797,-3.42174 0.058,-0.46397 0.23198,-0.92793 0.28998,-1.4499 0,-0.23198 -0.058,-0.57995 -0.11599,-0.86993 z m -1.21791,3.65373 c -0.058,0.86993 -0.11599,1.79786 -0.17399,2.84179 -0.28998,0 -0.57996,0.058 -0.81194,0.058 -1.15991,0 -2.31983,0 -3.47974,-0.058 -0.40597,0 -0.86993,-0.116 -1.3339,0.23198 -0.058,0.40597 -0.058,0.86993 -0.058,1.39189 0.058,1.73988 0.17399,3.53774 0.28998,5.27761 0.23199,3.59573 0.57996,7.19147 0.81194,10.7292 0.17399,3.01578 0.28998,5.97356 0.40597,8.93134 0,1.21791 0,2.37782 -0.23198,3.71172 -1.79787,0.17399 -3.42175,-0.17398 -5.16162,-0.11599 -0.23198,-1.15991 -0.28998,-2.26183 -0.40597,-3.36375 -0.40597,-5.16161 -0.28997,-10.32323 -0.23198,-15.42685 0,-3.36375 -0.058,-6.7855 -0.058,-10.14924 0,-0.17399 0,-0.34798 0,-0.52197 -0.058,-0.75394 -0.17399,-0.86993 -0.98593,-0.92793 -1.44989,-0.058 -2.89979,-0.11599 -4.40767,-0.17398 -0.40597,-1.97186 -0.75395,-3.88571 -1.10192,-5.85757 5.79957,0.17399 11.54114,0.28998 17.3987,0.52196 -0.058,0.98593 -0.34797,1.91386 -0.46396,2.89979 z"
           style="font-size:96px;line-height:125%;font-family:'GOOD PEOPLE';-inkscape-font-specification:'GOOD PEOPLE';font-variant-ligatures:no-common-ligatures;letter-spacing:0px;word-spacing:0px;white-space:pre;fill:#000000;stroke:none;stroke-width:0.604122px"
           id="path4184"
           inkscape:label="shadow_10" />
        <path
           style="font-size:96px;line-height:125%;font-family:'Times New Roman';-inkscape-font-specification:'Times New Roman, ';font-variant-ligatures:no-common-ligatures;letter-spacing:0px;word-spacing:0px;white-space:pre;opacity:0.510086;fill:#e0bbe4;fill-opacity:1;fill-rule:evenodd;stroke:none;stroke-width:0.113155;stroke-linecap:round;stroke-linejoin:round"
           d="m 138.27465,174.99801 c -1.21654,-0.0582 -1.1392,0.0486 -1.35057,-1.86331 -0.33127,-2.99631 -0.44498,-7.42808 -0.44781,-17.45221 -0.002,-6.37579 -0.0578,-10.67483 -0.14072,-10.80601 -0.15005,-0.23735 -1.7005,-0.40383 -3.97318,-0.42663 l -1.26752,-0.0127 -0.15617,-0.76672 c -0.28492,-1.39877 -0.88685,-4.67352 -0.88685,-4.82478 0,-0.1 1.37897,-0.11627 4.19876,-0.0496 4.46133,0.10547 12.94163,0.38815 12.98637,0.43289 0.0147,0.0147 -0.0719,0.58464 -0.19232,1.26657 -0.12047,0.68191 -0.26355,1.9299 -0.31795,2.77331 l -0.0989,1.53345 -2.62878,0.004 c -1.44583,0.002 -2.72079,0.0616 -2.83323,0.13169 -0.29344,0.1829 -0.13825,4.56147 0.41186,11.62058 0.72408,9.29138 1.0226,17.00155 0.70257,18.14592 l -0.11231,0.40162 -1.42114,-0.029 c -0.78163,-0.016 -1.89407,-0.0516 -2.4721,-0.0793 z"
           id="path4721"
           inkscape:label="fill_10" />
      </g>
      <g
         id="g1372"
         inkscape:label="letter_11">
        <path
           d="m 164.60699,167.66147 c -0.058,-1.62388 -0.17399,-3.24776 -0.34797,-4.92963 -0.17399,-2.26184 -0.40597,-4.58166 -0.63796,-6.84349 -0.23198,-2.55181 -0.52196,-5.04563 -0.63795,-7.53944 -0.17399,-3.18977 -0.34797,-6.32153 -0.23198,-9.4533 0,-0.34797 -0.058,-0.69595 -0.11599,-1.10192 -0.40597,-0.058 -0.75395,-0.11599 -1.10192,-0.17398 -1.73987,0 -3.53774,0 -5.27761,0 -0.34797,0 -0.75394,0.058 -1.04392,0.11599 -1.91386,0.52196 -3.76972,0.98592 -5.68358,1.50788 -0.23198,0.058 -0.40597,0.23199 -0.63795,0.34798 0.69595,4.23368 0.86994,8.46737 0.92793,12.70105 0.058,4.81364 0.058,9.62729 0.058,14.44093 0.058,3.36375 0.34797,6.6695 0.81194,9.97526 0,0.34797 0.11599,0.63795 0.23198,1.04392 1.3339,0.058 2.55181,0.058 3.76972,0.11599 2.95778,0.058 2.95778,0.058 5.74157,-0.69595 1.3919,-0.34797 2.7258,-0.75394 4.17569,-1.15991 0.058,-0.46397 0.11599,-0.86994 0.11599,-1.3339 0,-2.31983 0,-4.69765 -0.11599,-7.01748 z m -0.69595,6.7275 c 0,0.23198 -0.058,0.52196 -0.11599,0.75394 -0.98593,0.17399 -4.81364,0.058 -5.79957,-0.11599 -0.11599,-0.81194 -0.28998,-1.62388 -0.34797,-2.49381 -0.34798,-3.88571 -0.52196,-7.77142 -0.57996,-11.65714 0,-4.46566 0.058,-8.98933 0,-13.45499 -0.058,-2.7258 -0.28998,-5.50959 -0.69595,-8.23539 0,-0.17399 0,-0.34798 0,-0.52196 0.17399,-0.058 0.34798,-0.17399 0.52197,-0.17399 1.62387,0.058 3.24775,0.11599 4.92963,0.17399 0.058,0.28998 0.11599,0.57995 0.11599,0.81194 -0.11599,3.13176 0.058,6.32153 0.23198,9.45329 0.17399,2.37783 0.40597,4.75565 0.63795,7.13347 0.52197,5.4516 1.15992,10.8452 1.15992,16.35479 0,0.63795 0,1.3339 -0.058,1.97185 z"
           style="font-size:96px;line-height:125%;font-family:'GOOD PEOPLE';-inkscape-font-specification:'GOOD PEOPLE';font-variant-ligatures:no-common-ligatures;letter-spacing:0px;word-spacing:0px;white-space:pre;fill:#000000;stroke:none;stroke-width:0.604122px"
           id="path4186"
           inkscape:label="shadow_11"
           sodipodi:insensitive="true" />
        <path
           style="font-size:96px;line-height:125%;font-family:'Times New Roman';-inkscape-font-specification:'Times New Roman, ';font-variant-ligatures:no-common-ligatures;letter-spacing:0px;word-spacing:0px;white-space:pre;opacity:0.510086;fill:#957dad;fill-opacity:1;fill-rule:evenodd;stroke:none;stroke-width:0.113155;stroke-linecap:round;stroke-linejoin:round"
           d="m 158.3843,174.97579 c -0.4411,-0.1225 -0.46741,-0.26287 -0.78298,-4.17779 -0.35993,-4.46518 -0.40865,-6.19732 -0.45799,-16.28386 -0.037,-7.55966 -0.0964,-10.02529 -0.28317,-11.75651 -0.13,-1.20486 -0.27786,-2.64499 -0.32858,-3.20028 l -0.0922,-1.00964 2.6052,0.0942 c 1.62059,0.0586 2.64233,0.15428 2.70341,0.25312 0.054,0.0874 0.13759,2.24089 0.18573,4.78556 0.0865,4.57154 0.18487,5.95043 1.11171,15.57994 0.73994,7.6877 1.01685,12.65199 0.82181,14.73328 l -0.10424,1.11245 -2.50679,-0.0146 c -1.37874,-0.008 -2.6711,-0.0602 -2.8719,-0.11595 z"
           id="path4760"
           inkscape:label="fill_11" />
      </g>
      <g
         id="g1376"
         inkscape:label="letter_12">
        <path
           d="m 198.6504,159.83205 c -0.52196,-3.13176 -1.44989,-6.14754 -2.43582,-9.10532 -0.63795,-2.02985 -1.44989,-4.0017 -2.20383,-5.97356 -0.46397,-1.15991 -1.10192,-2.26183 -1.91386,-3.18976 -2.37782,-2.78379 -5.3356,-3.82771 -8.93133,-2.95778 -2.02985,0.52196 -4.00171,1.15992 -6.03156,1.62388 -2.6098,0.63795 -4.52366,2.20384 -5.68357,4.58166 -0.63796,1.3339 -1.15992,2.6678 -1.62388,4.0597 -1.21791,3.59573 -2.14584,7.30745 -2.6678,11.07717 -0.17399,1.68188 -0.40597,3.30576 -0.23199,4.92964 0.52196,5.04562 3.01578,8.93133 7.07548,11.83112 2.14584,1.50788 4.63965,2.20383 7.24946,2.08784 1.04392,-0.058 2.14584,-0.28998 3.13176,-0.52196 1.97186,-0.52196 3.94371,-1.04392 5.91556,-1.56588 1.50789,-0.46397 2.89979,-1.15992 4.0597,-2.20384 3.13177,-2.84179 4.75565,-6.32153 4.81364,-10.61321 -0.17398,-1.3339 -0.28997,-2.7258 -0.52196,-4.0597 z m -4.40767,13.57099 c -2.31983,2.31983 -5.21961,3.01578 -8.40937,2.7258 -2.31983,-0.28998 -4.34968,-1.21791 -6.08955,-2.7258 -2.6678,-2.31983 -4.52366,-5.10362 -5.27761,-8.58336 -0.28998,-1.3339 -0.34797,-2.7258 -0.23198,-4.0597 0.17399,-3.01577 0.75394,-5.91556 1.50789,-8.75735 0.52196,-2.20383 1.10192,-4.40767 1.97185,-6.49551 0.34798,-0.81194 0.69595,-1.62388 1.10192,-2.37782 2.6098,-4.81365 8.93133,-5.27761 12.46907,-1.27591 0.75394,0.81194 1.27591,1.68187 1.73987,2.6678 0.92793,1.97185 1.68188,4.0017 2.31983,6.08955 0.98593,3.07377 1.97185,6.14754 2.55181,9.3373 0.17399,1.27591 0.28998,2.55181 0.46396,3.82772 0,3.76972 -1.39189,6.95948 -4.11769,9.62728 z m -1.62388,-17.22472 c -0.34797,-1.91385 -0.86993,-3.71172 -1.73987,-5.45159 -0.40597,-0.69595 -0.81194,-1.3919 -1.3919,-1.91386 -2.43581,-2.49381 -6.43752,-1.91386 -8.0034,1.04392 -0.40597,0.75395 -0.75394,1.56589 -1.04392,2.43582 -0.69595,2.37783 -1.04392,4.81364 -1.15992,7.30746 0.058,0.63795 0,1.3339 0.116,1.97185 0.40597,2.89979 1.85586,4.98763 4.63965,6.14754 1.27591,0.46397 2.55181,0.57996 3.88571,0.46397 2.6678,-0.23198 4.75565,-2.08784 5.27761,-4.69765 0.17399,-1.04392 0.28998,-2.14584 0.11599,-3.30575 -0.23198,-1.3339 -0.40597,-2.66781 -0.69595,-4.00171 z m -6.90148,9.5113 c -0.17399,0.52196 -0.34798,1.04392 -0.75395,1.39189 -2.84179,-0.81194 -4.58166,-2.84179 -4.81364,-5.74157 -0.058,-0.86994 -0.058,-1.73987 0,-2.6678 0.17399,-2.02985 0.46397,-4.1177 1.04392,-6.08955 0.17399,-0.57996 0.34798,-1.21791 0.75395,-1.79786 0.23198,0.17398 0.40597,0.28997 0.57995,0.40597 0.63796,0.57995 1.04392,1.3339 1.3919,2.08784 0.63795,1.44989 1.10192,3.01578 1.3919,4.58166 0.40597,1.68187 0.75394,3.36375 0.75394,5.10362 0.058,0.92793 0,1.85586 -0.34797,2.7258 z"
           style="font-size:96px;line-height:125%;font-family:'GOOD PEOPLE';-inkscape-font-specification:'GOOD PEOPLE';font-variant-ligatures:no-common-ligatures;letter-spacing:0px;word-spacing:0px;white-space:pre;fill:#000000;stroke:none;stroke-width:0.604122px"
           id="path4188"
           inkscape:label="shadow_12" />
        <path
           style="font-size:96px;line-height:125%;font-family:'Times New Roman';-inkscape-font-specification:'Times New Roman, ';font-variant-ligatures:no-common-ligatures;letter-spacing:0px;word-spacing:0px;white-space:pre;opacity:0.510086;fill:#d291bc;fill-opacity:1;fill-rule:evenodd;stroke:none;stroke-width:0.22631;stroke-linecap:round;stroke-linejoin:round"
           d="m 184.59912,175.735 c -2.302,-0.59871 -3.95057,-1.59286 -5.84174,-3.52279 -2.14167,-2.18555 -3.53503,-4.7315 -4.12856,-7.54368 -0.59441,-2.81634 -0.16461,-6.92142 1.36347,-13.02287 2.26709,-9.05217 4.74869,-12.27207 9.4831,-12.30438 3.08016,-0.021 5.87539,2.07054 7.57465,5.66783 2.09166,4.42797 4.70547,13.64584 5.01436,17.68363 0.64143,8.38503 -6.13513,14.94871 -13.46528,13.04226 z m 5.72278,-8.17263 c 0.82895,-0.4378 1.58706,-1.16383 2.12916,-2.03906 1.22493,-1.97769 1.32023,-4.29926 0.36798,-8.96456 -1.24778,-6.11315 -3.19266,-8.98016 -6.29401,-9.27816 -1.90425,-0.18297 -2.72683,0.0469 -3.92174,1.09608 -1.3119,1.15186 -2.40625,3.68374 -2.95679,6.84081 -1.16083,6.65667 -0.0297,10.41201 3.69512,12.26819 2.07726,1.03514 5.10257,1.06838 6.98028,0.0767 z"
           id="path4799"
           inkscape:label="fill_12" />
      </g>
      <g
         id="g1380"
         inkscape:label="letter_13">
        <path
           d="m 232.7518,168.82138 c 0.058,-3.24776 -0.57996,-6.43752 -1.21791,-9.56928 -0.63795,-3.36375 -1.44989,-6.66951 -1.79787,-10.09125 -0.28998,-2.95778 -0.34797,-5.85757 0.28998,-8.75735 0.11599,-0.40597 0.17399,-0.81194 0.23198,-1.3339 -0.46396,-0.058 -0.81194,-0.11599 -1.10191,-0.17399 -1.33391,-0.058 -2.66781,-0.058 -4.00171,-0.17399 -0.98592,-0.058 -1.97185,0.058 -2.89978,0.34798 -0.57996,0.17398 -1.21791,0.28998 -1.79787,0.46396 -0.17398,-0.17398 -0.28998,-0.28998 -0.40597,-0.46396 -0.57995,-0.75395 -1.39189,-1.10192 -2.26183,-1.21791 -3.18976,-0.34798 -6.37952,-0.57996 -9.45329,0.52196 -1.33391,0.46396 -2.66781,0.75394 -4.00171,1.10192 -0.98592,0.28998 -1.62388,0.92793 -1.73987,1.91385 -0.11599,0.46397 -0.058,0.92794 -0.058,1.33391 0.11599,1.04392 0.34797,2.02984 0.40597,3.01577 0.11599,2.78379 0,5.50959 -0.34798,8.23539 -0.34797,2.6098 -0.69595,5.21961 -1.04392,7.77142 -0.34797,2.49381 -0.57996,4.98763 -0.46397,7.42345 0.116,2.20383 0.46397,4.34967 1.10192,6.43752 0.11599,0.34797 0.28998,0.69595 0.46397,1.04392 2.26183,0.23198 4.52366,0.34797 6.7275,0.28998 0.34797,0 0.69595,-0.11599 1.04392,-0.17399 1.04392,-0.28998 2.14584,-0.57996 3.24776,-0.86993 0.28998,0.34797 0.46396,0.57995 0.69595,0.75394 0.69594,0.69595 1.50788,1.04392 2.37782,1.10192 1.44989,0.11599 2.84179,0.17399 4.29168,0.23198 0.57996,0 1.21791,-0.058 1.79787,-0.23198 2.26183,-0.57996 4.46566,-1.15992 6.6695,-1.79787 1.3339,-0.34797 2.20384,-1.21791 2.6678,-2.37782 0.28998,-0.75395 0.46397,-1.56588 0.52196,-2.31983 0.11599,-0.81194 0.058,-1.62388 0.058,-2.43582 z m -0.86994,2.26183 c 0,0.75395 -0.17398,1.50789 -0.52196,2.20384 -0.52196,1.04392 -1.3339,1.73987 -2.55181,1.91386 -0.52196,0.058 -1.04392,0.11599 -1.56588,0.11599 -1.21791,-0.058 -2.49382,-0.11599 -3.71173,-0.17399 -1.62387,-0.11599 -2.6098,-0.92793 -3.01577,-2.49381 -1.27591,-4.75565 -2.26183,-9.56929 -2.95778,-14.44093 -0.46397,-3.24776 -0.86994,-6.43752 -1.27591,-9.62728 -0.11599,-0.46397 -0.11599,-0.92793 -0.69594,-0.98593 -0.40597,0.34798 -0.34798,0.81194 -0.34798,1.21791 -0.058,2.26183 -0.058,4.52367 -0.11599,6.7855 -0.11599,3.30575 -0.17399,6.6695 -0.23198,9.97525 -0.058,2.7258 0.11599,5.50959 0.52196,8.23539 0,0.11599 -0.058,0.23198 -0.058,0.34798 -1.10192,0.23198 -3.65373,0.17398 -5.74157,-0.17399 -0.17399,-0.46397 -0.34797,-0.92793 -0.46397,-1.44989 -0.63795,-2.49382 -0.86993,-5.04563 -0.75394,-7.65543 0.11599,-3.07377 0.57996,-6.14755 1.04392,-9.22132 0.40597,-2.84179 0.75395,-5.74157 0.81194,-8.64135 0.058,-1.79787 -0.058,-3.59574 -0.34797,-5.3936 -0.058,-0.52196 -0.11599,-1.10192 -0.058,-1.62388 0.058,-0.75395 0.46397,-1.21791 1.21791,-1.3919 0.52196,-0.11599 1.04392,-0.17399 1.56589,-0.11599 1.3339,0 2.6678,0.058 4.0017,0.17399 0.52196,0 1.10192,0.11599 1.68187,0.23198 0.69595,0.17399 1.21791,0.57996 1.3919,1.27591 0.23198,0.69594 0.40597,1.39189 0.52196,2.08784 0.63795,3.82772 1.27591,7.65543 2.14584,11.48315 0.52196,2.02984 0.98593,4.0017 1.50789,6.03155 0.058,0.28997 0.17399,0.63795 0.28998,0.92793 0.11599,0.34797 0.40597,0.34797 0.81194,0.17398 0,-0.23198 0,-0.46396 0,-0.75394 -0.28998,-2.89978 -0.63796,-5.79957 -0.86994,-8.69935 -0.28998,-3.30576 -0.52196,-6.66951 -0.34797,-9.97526 0.058,-0.52196 0.11599,-1.04392 0.17398,-1.62388 0.86994,-0.28998 1.79787,-0.11599 2.66781,-0.11599 0.81193,0 1.73987,-0.058 2.6098,0.23198 0,0.28998 -0.058,0.46397 -0.058,0.63796 -0.57996,2.89978 -0.52197,5.85756 -0.23199,8.87333 0.40597,3.30576 1.15992,6.61151 1.85586,9.91727 0.46397,2.37782 0.92794,4.75564 1.10192,7.19146 0.11599,1.50789 0.058,3.01578 0,4.52366 z"
           style="font-size:96px;line-height:125%;font-family:'GOOD PEOPLE';-inkscape-font-specification:'GOOD PEOPLE';font-variant-ligatures:no-common-ligatures;letter-spacing:0px;word-spacing:0px;white-space:pre;fill:#000000;stroke:none;stroke-width:0.604122px"
           id="path4190"
           inkscape:label="shadow_13" />
        <path
           style="font-size:96px;line-height:125%;font-family:'Times New Roman';-inkscape-font-specification:'Times New Roman, ';font-variant-ligatures:no-common-ligatures;letter-spacing:0px;word-spacing:0px;white-space:pre;opacity:0.510086;fill:#fec8d8;fill-opacity:1;fill-rule:evenodd;stroke:none;stroke-width:0.22631;stroke-linecap:round;stroke-linejoin:round"
           d="m 223.96583,175.00621 c -1.2745,-0.13463 -2.00075,-0.37521 -2.43058,-0.80515 -1.12081,-1.12111 -3.06852,-10.1414 -4.49684,-20.82598 -0.39515,-2.95587 -0.8565,-5.51237 -1.02522,-5.68109 -0.86718,-0.86717 -0.96257,0.40856 -0.9997,13.36895 l -0.0373,13.0201 -2.04461,-0.003 c -3.23915,-0.006 -3.2565,-0.0172 -3.84636,-2.58196 -0.72077,-3.13391 -0.61643,-8.26556 0.30077,-14.79278 1.00249,-7.13416 1.19819,-10.54426 0.79407,-13.83668 -0.29092,-2.37025 -0.27494,-2.83053 0.11918,-3.43203 0.43259,-0.66022 0.61049,-0.69458 3.58836,-0.69303 3.82527,0.002 5.24738,0.34336 5.63073,1.35164 0.15347,0.40367 0.68068,2.99169 1.17158,5.75115 1.16861,6.56912 3.12661,14.67388 3.64994,15.1082 0.75421,0.62595 0.80148,-0.45579 0.25315,-5.79402 -0.29225,-2.84528 -0.53829,-7.40771 -0.54674,-10.13872 l -0.0154,-4.96548 2.56105,-0.0845 2.56104,-0.0845 -0.22434,1.25282 c -0.1234,0.68905 -0.20664,3.02725 -0.185,5.196 0.0344,3.44324 0.21442,4.81344 1.42017,10.80723 2.15912,10.73295 2.15258,15.9425 -0.0218,17.36719 -0.84203,0.55172 -3.57309,0.77108 -6.17622,0.49609 z"
           id="path4838"
           inkscape:label="fill_13" />
      </g>
      <g
         id="g1384"
         inkscape:label="letter_14">
        <path
           d="m 260.00974,167.37149 c -0.28997,-2.6678 -1.15991,-5.10362 -2.6678,-7.30746 -0.75394,-1.04392 -1.56588,-2.02984 -2.37782,-3.01577 -1.2759,-1.50789 -2.55181,-2.95778 -3.82771,-4.40767 -0.98593,-1.21791 -1.79787,-2.55181 -2.37783,-4.0017 -0.11599,-0.28998 -0.11599,-0.63796 -0.17398,-1.04393 1.68187,-0.52196 3.30575,-0.92793 4.87163,-1.39189 0.63796,-2.31983 1.27591,-4.52367 1.85586,-6.7275 0.058,-0.11599 -0.058,-0.23199 -0.058,-0.40597 -0.17399,-0.058 -0.28998,-0.23199 -0.46397,-0.23199 -1.97185,-0.69594 -4.0017,-1.04392 -6.14754,-0.86993 -0.63795,0.058 -1.2759,0.17399 -1.91386,0.34797 -2.02985,0.52196 -4.05969,1.04393 -6.03155,1.56589 -1.85586,0.52196 -3.13176,1.62388 -3.88571,3.36375 -0.46396,1.04392 -0.81194,2.14584 -0.92793,3.30575 -0.23198,3.30575 0.34797,6.43752 1.85586,9.3953 0.92793,1.91386 2.14584,3.53774 3.53774,5.16162 1.15991,1.3339 2.26183,2.72579 3.30575,4.11769 0.23199,0.28998 0.34798,0.57996 0.57996,0.92793 -0.40597,0.11599 -0.69595,0.28998 -0.98593,0.34798 -1.2759,0.34797 -2.6098,0.69594 -3.9437,1.10191 -0.40597,0.11599 -0.86994,0.28998 -1.21791,0.52196 -1.56589,1.10192 -3.07377,2.20384 -4.58166,3.36375 -0.23198,0.17399 -0.40597,0.46397 -0.57996,0.69595 1.27591,1.62388 2.55181,3.13177 4.0597,4.46567 0.92793,0.81194 1.91386,1.50789 3.07377,2.02985 1.73987,0.81194 3.47974,0.92793 5.3356,0.46396 2.14584,-0.57995 4.23369,-1.10191 6.37953,-1.73987 2.7258,-0.81194 4.81364,-2.43581 6.20554,-4.92963 0.86993,-1.56588 1.2759,-3.30575 1.10191,-5.10362 z m -1.50788,4.0017 c -1.21791,2.55181 -3.18977,4.23369 -5.85757,5.10362 -1.56588,0.52196 -3.13176,0.40597 -4.69765,-0.23198 -1.15991,-0.52196 -2.26183,-1.21791 -3.18976,-2.08784 -1.04392,-1.10192 -2.02985,-2.20384 -3.07377,-3.30576 -0.058,-0.11599 -0.11599,-0.23198 -0.17399,-0.34797 0.86994,-0.81194 3.30576,-2.60981 4.46567,-3.24776 0.17399,0.17399 0.34797,0.34797 0.52196,0.52196 0.52196,0.63795 1.04392,1.3339 1.62388,1.91386 0.46397,0.40597 0.98593,0.75394 1.56588,1.04392 0.75395,0.40597 1.56589,0.23198 2.20384,-0.28998 1.2759,-1.04392 1.73987,-2.31983 1.44989,-3.9437 -0.17399,-0.98593 -0.63795,-1.91386 -1.15991,-2.7838 -0.81194,-1.44989 -1.85586,-2.6678 -2.95778,-3.9437 -0.57996,-0.69595 -1.21791,-1.3919 -1.79787,-2.08785 -1.91386,-2.31983 -3.30575,-4.92963 -3.9437,-7.88741 -0.34798,-1.85586 -0.52197,-3.71172 -0.17399,-5.56759 0.11599,-0.63795 0.28998,-1.2759 0.52196,-1.91385 0.75394,-2.08785 2.31983,-3.24776 4.46567,-3.47975 1.97185,-0.23198 3.9437,0.058 6.03155,0.75395 -0.46397,1.91386 -0.92793,3.71172 -1.44989,5.56758 -0.57996,-0.11599 -1.15992,-0.28997 -1.68188,-0.34797 -0.63795,-0.17399 -1.3339,-0.17399 -1.97185,0 -1.04392,0.28998 -1.56589,0.98593 -1.56589,2.02985 -0.058,0.40597 0.058,0.86993 0.116,1.3339 0.40597,1.44989 1.10191,2.78379 2.02984,4.0017 0.86994,1.15992 1.79787,2.26183 2.7258,3.42175 0.75395,0.86993 1.56589,1.68187 2.31983,2.55181 1.10192,1.2759 2.02985,2.6098 2.78379,4.05969 0.92793,1.68188 1.3919,3.53774 1.56589,5.4516 0.11599,1.2759 -0.17399,2.55181 -0.69595,3.71172 z"
           style="font-size:96px;line-height:125%;font-family:'GOOD PEOPLE';-inkscape-font-specification:'GOOD PEOPLE';font-variant-ligatures:no-common-ligatures;letter-spacing:0px;word-spacing:0px;white-space:pre;display:inline;fill:#000000;stroke:none;stroke-width:0.604122px"
           id="path4192"
           inkscape:label="shadow_14"
           sodipodi:insensitive="true" />
        <path
           style="font-size:96px;line-height:125%;font-family:'Times New Roman';-inkscape-font-specification:'Times New Roman, ';font-variant-ligatures:no-common-ligatures;letter-spacing:0px;word-spacing:0px;white-space:pre;opacity:0.510086;fill:#fffef2;fill-opacity:1;fill-rule:evenodd;stroke:none;stroke-width:0.22631;stroke-linecap:round;stroke-linejoin:round"
           d="m 249.00436,176.45591 c -2.09076,-0.68489 -3.20434,-1.49034 -5.82875,-4.21593 -1.81402,-1.88397 -1.9292,-1.52267 1.17612,-3.6894 l 1.62726,-1.13541 1.17692,1.36633 c 0.64731,0.75148 1.65115,1.62171 2.23077,1.93385 1.00033,0.53872 1.10569,0.54281 2.07508,0.0805 2.09806,-1.0005 2.58216,-3.72699 1.16061,-6.53664 -0.44856,-0.88656 -2.09633,-3.14615 -3.66171,-5.02132 -1.62587,-1.94764 -3.30135,-4.31792 -3.90788,-5.52843 -2.59595,-5.181 -2.23238,-11.68418 0.77286,-13.82411 1.18755,-0.8456 4.43846,-1.12048 6.85525,-0.57962 l 1.52579,0.34146 -0.28172,1.08056 c -0.15495,0.59431 -0.4733,1.76546 -0.70743,2.60257 l -0.42571,1.52202 -1.82071,-0.16658 c -1.57986,-0.14454 -1.92697,-0.0823 -2.62395,0.47077 -2.07651,1.64766 -0.36256,5.55565 5.11416,11.66082 3.86193,4.30509 5.474,7.63665 5.474,11.31276 0,2.28413 -0.78415,4.12283 -2.48339,5.8231 -2.04305,2.04428 -5.4016,3.17289 -7.44757,2.50266 z"
           id="path4877"
           inkscape:label="fill_14" />
      </g>
    </g>
  </g>
</svg>
